%
M48
M72
T01C0.0118
T02C0.0394
T03C0.0400
T04C0.1102
%
T01
X10149Y14284
X14568Y13191
X16330Y7306
X5769Y15957
X4962Y14924
X4981Y17650
X5178Y19933
X5670Y19933
X6143Y19933
X6635Y19933
X7127Y19933
X7639Y19933
X8131Y19933
X8564Y19933
X9017Y19933
X9568Y19933
X10060Y19924
X10503Y19924
X10798Y20248
X10798Y20681
X10513Y21036
X10060Y21046
X9558Y21036
X9066Y21036
X8584Y21036
X8111Y21036
X7619Y21036
X7107Y21036
X6615Y21036
X6123Y21036
X5651Y21036
X5159Y21036
X21674Y20426
T02
X3850Y20504
T03
X18948Y20292
X18948Y19292
X18948Y18292
X18948Y17292
X18948Y16306
X18948Y15306
X18948Y14306
X18948Y13306
X18938Y12309
X18938Y11309
X18938Y10309
X18938Y9309
X18934Y8309
X18934Y7306
X23113Y7445
X23113Y6445
X23113Y5445
X23113Y4445
X23113Y3445
X24113Y3445
X24113Y4445
X24113Y5445
X24113Y6445
X24113Y7445
X24113Y8445
X23113Y8445
X23113Y9445
X23113Y10445
X23113Y11445
X23113Y12445
X23113Y13445
X23113Y14445
X23113Y15445
X23113Y16445
X23113Y17445
X23113Y18445
X23113Y19445
X23113Y20445
X23113Y21445
X23113Y22445
X24113Y22445
X24113Y21445
X24113Y20445
X24113Y19445
X24113Y18445
X24113Y17445
X24113Y16445
X24113Y15445
X24113Y14445
X24113Y13445
X24113Y12445
X24113Y11445
X24113Y10445
X24113Y9445
X18934Y21449
X18944Y22443
T04
X4322Y1528
X23613Y1528
X23663Y24402
X4322Y24363
M30
