G75*
%MOIN*%
%OFA0B0*%
%FSLAX24Y24*%
%IPPOS*%
%LPD*%
%AMOC8*
5,1,8,0,0,1.08239X$1,22.5*
%
%ADD10C,0.0000*%
D10*
X002944Y001331D02*
X002944Y007237D01*
X002946Y007276D01*
X002952Y007314D01*
X002961Y007351D01*
X002974Y007388D01*
X002991Y007423D01*
X003010Y007456D01*
X003033Y007487D01*
X003059Y007516D01*
X003088Y007542D01*
X003119Y007565D01*
X003152Y007584D01*
X003187Y007601D01*
X003224Y007614D01*
X003261Y007623D01*
X003299Y007629D01*
X003338Y007631D01*
X003338Y007630D02*
X010424Y007630D01*
X010818Y008024D02*
X010816Y008063D01*
X010810Y008101D01*
X010801Y008138D01*
X010788Y008175D01*
X010771Y008210D01*
X010752Y008243D01*
X010729Y008274D01*
X010703Y008303D01*
X010674Y008329D01*
X010643Y008352D01*
X010610Y008371D01*
X010575Y008388D01*
X010538Y008401D01*
X010501Y008410D01*
X010463Y008416D01*
X010424Y008418D01*
X003338Y008418D01*
X003338Y008417D02*
X003299Y008419D01*
X003261Y008425D01*
X003224Y008434D01*
X003187Y008447D01*
X003152Y008464D01*
X003119Y008483D01*
X003088Y008506D01*
X003059Y008532D01*
X003033Y008561D01*
X003010Y008592D01*
X002991Y008625D01*
X002974Y008660D01*
X002961Y008697D01*
X002952Y008734D01*
X002946Y008772D01*
X002944Y008811D01*
X002944Y024559D01*
X002946Y024625D01*
X002951Y024691D01*
X002961Y024757D01*
X002974Y024822D01*
X002990Y024886D01*
X003010Y024949D01*
X003034Y025011D01*
X003061Y025071D01*
X003091Y025130D01*
X003125Y025187D01*
X003162Y025242D01*
X003202Y025295D01*
X003244Y025346D01*
X003290Y025394D01*
X003338Y025440D01*
X003389Y025482D01*
X003442Y025522D01*
X003497Y025559D01*
X003554Y025593D01*
X003613Y025623D01*
X003673Y025650D01*
X003735Y025674D01*
X003798Y025694D01*
X003862Y025710D01*
X003927Y025723D01*
X003993Y025733D01*
X004059Y025738D01*
X004125Y025740D01*
X004125Y025741D02*
X010228Y025741D01*
X010267Y025739D01*
X010305Y025733D01*
X010342Y025724D01*
X010379Y025711D01*
X010414Y025694D01*
X010447Y025675D01*
X010478Y025652D01*
X010507Y025626D01*
X010533Y025597D01*
X010556Y025566D01*
X010575Y025533D01*
X010592Y025498D01*
X010605Y025461D01*
X010614Y025424D01*
X010620Y025386D01*
X010622Y025347D01*
X010621Y025347D02*
X010621Y024166D01*
X010623Y024127D01*
X010629Y024089D01*
X010638Y024052D01*
X010651Y024015D01*
X010668Y023980D01*
X010687Y023947D01*
X010710Y023916D01*
X010736Y023887D01*
X010765Y023861D01*
X010796Y023838D01*
X010829Y023819D01*
X010864Y023802D01*
X010901Y023789D01*
X010938Y023780D01*
X010976Y023774D01*
X011015Y023772D01*
X016920Y023772D01*
X016959Y023774D01*
X016997Y023780D01*
X017034Y023789D01*
X017071Y023802D01*
X017106Y023819D01*
X017139Y023838D01*
X017170Y023861D01*
X017199Y023887D01*
X017225Y023916D01*
X017248Y023947D01*
X017267Y023980D01*
X017284Y024015D01*
X017297Y024052D01*
X017306Y024089D01*
X017312Y024127D01*
X017314Y024166D01*
X017314Y025347D01*
X017316Y025386D01*
X017322Y025424D01*
X017331Y025461D01*
X017344Y025498D01*
X017361Y025533D01*
X017380Y025566D01*
X017403Y025597D01*
X017429Y025626D01*
X017458Y025652D01*
X017489Y025675D01*
X017522Y025694D01*
X017557Y025711D01*
X017594Y025724D01*
X017631Y025733D01*
X017669Y025739D01*
X017708Y025741D01*
X023810Y025741D01*
X023810Y025740D02*
X023876Y025738D01*
X023942Y025733D01*
X024008Y025723D01*
X024073Y025710D01*
X024137Y025694D01*
X024200Y025674D01*
X024262Y025650D01*
X024322Y025623D01*
X024381Y025593D01*
X024438Y025559D01*
X024493Y025522D01*
X024546Y025482D01*
X024597Y025440D01*
X024645Y025394D01*
X024691Y025346D01*
X024733Y025295D01*
X024773Y025242D01*
X024810Y025187D01*
X024844Y025130D01*
X024874Y025071D01*
X024901Y025011D01*
X024925Y024949D01*
X024945Y024886D01*
X024961Y024822D01*
X024974Y024757D01*
X024984Y024691D01*
X024989Y024625D01*
X024991Y024559D01*
X024991Y001331D01*
X024989Y001265D01*
X024984Y001199D01*
X024974Y001133D01*
X024961Y001068D01*
X024945Y001004D01*
X024925Y000941D01*
X024901Y000879D01*
X024874Y000819D01*
X024844Y000760D01*
X024810Y000703D01*
X024773Y000648D01*
X024733Y000595D01*
X024691Y000544D01*
X024645Y000496D01*
X024597Y000450D01*
X024546Y000408D01*
X024493Y000368D01*
X024438Y000331D01*
X024381Y000297D01*
X024322Y000267D01*
X024262Y000240D01*
X024200Y000216D01*
X024137Y000196D01*
X024073Y000180D01*
X024008Y000167D01*
X023942Y000157D01*
X023876Y000152D01*
X023810Y000150D01*
X004125Y000150D01*
X004059Y000152D01*
X003993Y000157D01*
X003927Y000167D01*
X003862Y000180D01*
X003798Y000196D01*
X003735Y000216D01*
X003673Y000240D01*
X003613Y000267D01*
X003554Y000297D01*
X003497Y000331D01*
X003442Y000368D01*
X003389Y000408D01*
X003338Y000450D01*
X003290Y000496D01*
X003244Y000544D01*
X003202Y000595D01*
X003162Y000648D01*
X003125Y000703D01*
X003091Y000760D01*
X003061Y000819D01*
X003034Y000879D01*
X003010Y000941D01*
X002990Y001004D01*
X002974Y001068D01*
X002961Y001133D01*
X002951Y001199D01*
X002946Y001265D01*
X002944Y001331D01*
X003771Y001528D02*
X003773Y001575D01*
X003779Y001621D01*
X003789Y001667D01*
X003802Y001712D01*
X003820Y001755D01*
X003841Y001797D01*
X003865Y001837D01*
X003893Y001874D01*
X003924Y001909D01*
X003958Y001942D01*
X003994Y001971D01*
X004033Y001997D01*
X004074Y002020D01*
X004117Y002039D01*
X004161Y002055D01*
X004206Y002067D01*
X004252Y002075D01*
X004299Y002079D01*
X004345Y002079D01*
X004392Y002075D01*
X004438Y002067D01*
X004483Y002055D01*
X004527Y002039D01*
X004570Y002020D01*
X004611Y001997D01*
X004650Y001971D01*
X004686Y001942D01*
X004720Y001909D01*
X004751Y001874D01*
X004779Y001837D01*
X004803Y001797D01*
X004824Y001755D01*
X004842Y001712D01*
X004855Y001667D01*
X004865Y001621D01*
X004871Y001575D01*
X004873Y001528D01*
X004871Y001481D01*
X004865Y001435D01*
X004855Y001389D01*
X004842Y001344D01*
X004824Y001301D01*
X004803Y001259D01*
X004779Y001219D01*
X004751Y001182D01*
X004720Y001147D01*
X004686Y001114D01*
X004650Y001085D01*
X004611Y001059D01*
X004570Y001036D01*
X004527Y001017D01*
X004483Y001001D01*
X004438Y000989D01*
X004392Y000981D01*
X004345Y000977D01*
X004299Y000977D01*
X004252Y000981D01*
X004206Y000989D01*
X004161Y001001D01*
X004117Y001017D01*
X004074Y001036D01*
X004033Y001059D01*
X003994Y001085D01*
X003958Y001114D01*
X003924Y001147D01*
X003893Y001182D01*
X003865Y001219D01*
X003841Y001259D01*
X003820Y001301D01*
X003802Y001344D01*
X003789Y001389D01*
X003779Y001435D01*
X003773Y001481D01*
X003771Y001528D01*
X010424Y007630D02*
X010463Y007632D01*
X010501Y007638D01*
X010538Y007647D01*
X010575Y007660D01*
X010610Y007677D01*
X010643Y007696D01*
X010674Y007719D01*
X010703Y007745D01*
X010729Y007774D01*
X010752Y007805D01*
X010771Y007838D01*
X010788Y007873D01*
X010801Y007910D01*
X010810Y007947D01*
X010816Y007985D01*
X010818Y008024D01*
X023062Y001528D02*
X023064Y001575D01*
X023070Y001621D01*
X023080Y001667D01*
X023093Y001712D01*
X023111Y001755D01*
X023132Y001797D01*
X023156Y001837D01*
X023184Y001874D01*
X023215Y001909D01*
X023249Y001942D01*
X023285Y001971D01*
X023324Y001997D01*
X023365Y002020D01*
X023408Y002039D01*
X023452Y002055D01*
X023497Y002067D01*
X023543Y002075D01*
X023590Y002079D01*
X023636Y002079D01*
X023683Y002075D01*
X023729Y002067D01*
X023774Y002055D01*
X023818Y002039D01*
X023861Y002020D01*
X023902Y001997D01*
X023941Y001971D01*
X023977Y001942D01*
X024011Y001909D01*
X024042Y001874D01*
X024070Y001837D01*
X024094Y001797D01*
X024115Y001755D01*
X024133Y001712D01*
X024146Y001667D01*
X024156Y001621D01*
X024162Y001575D01*
X024164Y001528D01*
X024162Y001481D01*
X024156Y001435D01*
X024146Y001389D01*
X024133Y001344D01*
X024115Y001301D01*
X024094Y001259D01*
X024070Y001219D01*
X024042Y001182D01*
X024011Y001147D01*
X023977Y001114D01*
X023941Y001085D01*
X023902Y001059D01*
X023861Y001036D01*
X023818Y001017D01*
X023774Y001001D01*
X023729Y000989D01*
X023683Y000981D01*
X023636Y000977D01*
X023590Y000977D01*
X023543Y000981D01*
X023497Y000989D01*
X023452Y001001D01*
X023408Y001017D01*
X023365Y001036D01*
X023324Y001059D01*
X023285Y001085D01*
X023249Y001114D01*
X023215Y001147D01*
X023184Y001182D01*
X023156Y001219D01*
X023132Y001259D01*
X023111Y001301D01*
X023093Y001344D01*
X023080Y001389D01*
X023070Y001435D01*
X023064Y001481D01*
X023062Y001528D01*
X023112Y024402D02*
X023114Y024449D01*
X023120Y024495D01*
X023130Y024541D01*
X023143Y024586D01*
X023161Y024629D01*
X023182Y024671D01*
X023206Y024711D01*
X023234Y024748D01*
X023265Y024783D01*
X023299Y024816D01*
X023335Y024845D01*
X023374Y024871D01*
X023415Y024894D01*
X023458Y024913D01*
X023502Y024929D01*
X023547Y024941D01*
X023593Y024949D01*
X023640Y024953D01*
X023686Y024953D01*
X023733Y024949D01*
X023779Y024941D01*
X023824Y024929D01*
X023868Y024913D01*
X023911Y024894D01*
X023952Y024871D01*
X023991Y024845D01*
X024027Y024816D01*
X024061Y024783D01*
X024092Y024748D01*
X024120Y024711D01*
X024144Y024671D01*
X024165Y024629D01*
X024183Y024586D01*
X024196Y024541D01*
X024206Y024495D01*
X024212Y024449D01*
X024214Y024402D01*
X024212Y024355D01*
X024206Y024309D01*
X024196Y024263D01*
X024183Y024218D01*
X024165Y024175D01*
X024144Y024133D01*
X024120Y024093D01*
X024092Y024056D01*
X024061Y024021D01*
X024027Y023988D01*
X023991Y023959D01*
X023952Y023933D01*
X023911Y023910D01*
X023868Y023891D01*
X023824Y023875D01*
X023779Y023863D01*
X023733Y023855D01*
X023686Y023851D01*
X023640Y023851D01*
X023593Y023855D01*
X023547Y023863D01*
X023502Y023875D01*
X023458Y023891D01*
X023415Y023910D01*
X023374Y023933D01*
X023335Y023959D01*
X023299Y023988D01*
X023265Y024021D01*
X023234Y024056D01*
X023206Y024093D01*
X023182Y024133D01*
X023161Y024175D01*
X023143Y024218D01*
X023130Y024263D01*
X023120Y024309D01*
X023114Y024355D01*
X023112Y024402D01*
X003771Y024363D02*
X003773Y024410D01*
X003779Y024456D01*
X003789Y024502D01*
X003802Y024547D01*
X003820Y024590D01*
X003841Y024632D01*
X003865Y024672D01*
X003893Y024709D01*
X003924Y024744D01*
X003958Y024777D01*
X003994Y024806D01*
X004033Y024832D01*
X004074Y024855D01*
X004117Y024874D01*
X004161Y024890D01*
X004206Y024902D01*
X004252Y024910D01*
X004299Y024914D01*
X004345Y024914D01*
X004392Y024910D01*
X004438Y024902D01*
X004483Y024890D01*
X004527Y024874D01*
X004570Y024855D01*
X004611Y024832D01*
X004650Y024806D01*
X004686Y024777D01*
X004720Y024744D01*
X004751Y024709D01*
X004779Y024672D01*
X004803Y024632D01*
X004824Y024590D01*
X004842Y024547D01*
X004855Y024502D01*
X004865Y024456D01*
X004871Y024410D01*
X004873Y024363D01*
X004871Y024316D01*
X004865Y024270D01*
X004855Y024224D01*
X004842Y024179D01*
X004824Y024136D01*
X004803Y024094D01*
X004779Y024054D01*
X004751Y024017D01*
X004720Y023982D01*
X004686Y023949D01*
X004650Y023920D01*
X004611Y023894D01*
X004570Y023871D01*
X004527Y023852D01*
X004483Y023836D01*
X004438Y023824D01*
X004392Y023816D01*
X004345Y023812D01*
X004299Y023812D01*
X004252Y023816D01*
X004206Y023824D01*
X004161Y023836D01*
X004117Y023852D01*
X004074Y023871D01*
X004033Y023894D01*
X003994Y023920D01*
X003958Y023949D01*
X003924Y023982D01*
X003893Y024017D01*
X003865Y024054D01*
X003841Y024094D01*
X003820Y024136D01*
X003802Y024179D01*
X003789Y024224D01*
X003779Y024270D01*
X003773Y024316D01*
X003771Y024363D01*
M02*
