G75*
%MOIN*%
%OFA0B0*%
%FSLAX24Y24*%
%IPPOS*%
%LPD*%
%AMOC8*
5,1,8,0,0,1.08239X$1,22.5*
%
%ADD10C,0.1182*%
%ADD11C,0.1220*%
%ADD12R,0.0330X0.0580*%
%ADD13R,0.0474X0.0513*%
%ADD14C,0.0552*%
%ADD15R,0.1680X0.0680*%
%ADD16R,0.0552X0.0552*%
%ADD17R,0.0513X0.0474*%
%ADD18R,0.0434X0.0395*%
%ADD19C,0.0780*%
%ADD20C,0.0050*%
%ADD21R,0.0277X0.0277*%
%ADD22R,0.0474X0.0395*%
%ADD23R,0.0680X0.0680*%
%ADD24OC8,0.0680*%
%ADD25R,0.0552X0.0218*%
%ADD26C,0.0671*%
D10*
X004322Y001528D03*
X023613Y001528D03*
X023663Y024402D03*
X004322Y024363D03*
D11*
X003712Y001528D02*
X003714Y001577D01*
X003720Y001626D01*
X003730Y001674D01*
X003743Y001721D01*
X003761Y001767D01*
X003782Y001811D01*
X003806Y001854D01*
X003834Y001894D01*
X003865Y001933D01*
X003899Y001968D01*
X003936Y002001D01*
X003975Y002030D01*
X004017Y002056D01*
X004060Y002079D01*
X004106Y002098D01*
X004152Y002114D01*
X004200Y002126D01*
X004248Y002134D01*
X004297Y002138D01*
X004347Y002138D01*
X004396Y002134D01*
X004444Y002126D01*
X004492Y002114D01*
X004538Y002098D01*
X004584Y002079D01*
X004627Y002056D01*
X004669Y002030D01*
X004708Y002001D01*
X004745Y001968D01*
X004779Y001933D01*
X004810Y001894D01*
X004838Y001854D01*
X004862Y001811D01*
X004883Y001767D01*
X004901Y001721D01*
X004914Y001674D01*
X004924Y001626D01*
X004930Y001577D01*
X004932Y001528D01*
X004930Y001479D01*
X004924Y001430D01*
X004914Y001382D01*
X004901Y001335D01*
X004883Y001289D01*
X004862Y001245D01*
X004838Y001202D01*
X004810Y001162D01*
X004779Y001123D01*
X004745Y001088D01*
X004708Y001055D01*
X004669Y001026D01*
X004627Y001000D01*
X004584Y000977D01*
X004538Y000958D01*
X004492Y000942D01*
X004444Y000930D01*
X004396Y000922D01*
X004347Y000918D01*
X004297Y000918D01*
X004248Y000922D01*
X004200Y000930D01*
X004152Y000942D01*
X004106Y000958D01*
X004060Y000977D01*
X004017Y001000D01*
X003975Y001026D01*
X003936Y001055D01*
X003899Y001088D01*
X003865Y001123D01*
X003834Y001162D01*
X003806Y001202D01*
X003782Y001245D01*
X003761Y001289D01*
X003743Y001335D01*
X003730Y001382D01*
X003720Y001430D01*
X003714Y001479D01*
X003712Y001528D01*
X023003Y001528D02*
X023005Y001577D01*
X023011Y001626D01*
X023021Y001674D01*
X023034Y001721D01*
X023052Y001767D01*
X023073Y001811D01*
X023097Y001854D01*
X023125Y001894D01*
X023156Y001933D01*
X023190Y001968D01*
X023227Y002001D01*
X023266Y002030D01*
X023308Y002056D01*
X023351Y002079D01*
X023397Y002098D01*
X023443Y002114D01*
X023491Y002126D01*
X023539Y002134D01*
X023588Y002138D01*
X023638Y002138D01*
X023687Y002134D01*
X023735Y002126D01*
X023783Y002114D01*
X023829Y002098D01*
X023875Y002079D01*
X023918Y002056D01*
X023960Y002030D01*
X023999Y002001D01*
X024036Y001968D01*
X024070Y001933D01*
X024101Y001894D01*
X024129Y001854D01*
X024153Y001811D01*
X024174Y001767D01*
X024192Y001721D01*
X024205Y001674D01*
X024215Y001626D01*
X024221Y001577D01*
X024223Y001528D01*
X024221Y001479D01*
X024215Y001430D01*
X024205Y001382D01*
X024192Y001335D01*
X024174Y001289D01*
X024153Y001245D01*
X024129Y001202D01*
X024101Y001162D01*
X024070Y001123D01*
X024036Y001088D01*
X023999Y001055D01*
X023960Y001026D01*
X023918Y001000D01*
X023875Y000977D01*
X023829Y000958D01*
X023783Y000942D01*
X023735Y000930D01*
X023687Y000922D01*
X023638Y000918D01*
X023588Y000918D01*
X023539Y000922D01*
X023491Y000930D01*
X023443Y000942D01*
X023397Y000958D01*
X023351Y000977D01*
X023308Y001000D01*
X023266Y001026D01*
X023227Y001055D01*
X023190Y001088D01*
X023156Y001123D01*
X023125Y001162D01*
X023097Y001202D01*
X023073Y001245D01*
X023052Y001289D01*
X023034Y001335D01*
X023021Y001382D01*
X023011Y001430D01*
X023005Y001479D01*
X023003Y001528D01*
X023003Y024363D02*
X023005Y024412D01*
X023011Y024461D01*
X023021Y024509D01*
X023034Y024556D01*
X023052Y024602D01*
X023073Y024646D01*
X023097Y024689D01*
X023125Y024729D01*
X023156Y024768D01*
X023190Y024803D01*
X023227Y024836D01*
X023266Y024865D01*
X023308Y024891D01*
X023351Y024914D01*
X023397Y024933D01*
X023443Y024949D01*
X023491Y024961D01*
X023539Y024969D01*
X023588Y024973D01*
X023638Y024973D01*
X023687Y024969D01*
X023735Y024961D01*
X023783Y024949D01*
X023829Y024933D01*
X023875Y024914D01*
X023918Y024891D01*
X023960Y024865D01*
X023999Y024836D01*
X024036Y024803D01*
X024070Y024768D01*
X024101Y024729D01*
X024129Y024689D01*
X024153Y024646D01*
X024174Y024602D01*
X024192Y024556D01*
X024205Y024509D01*
X024215Y024461D01*
X024221Y024412D01*
X024223Y024363D01*
X024221Y024314D01*
X024215Y024265D01*
X024205Y024217D01*
X024192Y024170D01*
X024174Y024124D01*
X024153Y024080D01*
X024129Y024037D01*
X024101Y023997D01*
X024070Y023958D01*
X024036Y023923D01*
X023999Y023890D01*
X023960Y023861D01*
X023918Y023835D01*
X023875Y023812D01*
X023829Y023793D01*
X023783Y023777D01*
X023735Y023765D01*
X023687Y023757D01*
X023638Y023753D01*
X023588Y023753D01*
X023539Y023757D01*
X023491Y023765D01*
X023443Y023777D01*
X023397Y023793D01*
X023351Y023812D01*
X023308Y023835D01*
X023266Y023861D01*
X023227Y023890D01*
X023190Y023923D01*
X023156Y023958D01*
X023125Y023997D01*
X023097Y024037D01*
X023073Y024080D01*
X023052Y024124D01*
X023034Y024170D01*
X023021Y024217D01*
X023011Y024265D01*
X023005Y024314D01*
X023003Y024363D01*
X003712Y024363D02*
X003714Y024412D01*
X003720Y024461D01*
X003730Y024509D01*
X003743Y024556D01*
X003761Y024602D01*
X003782Y024646D01*
X003806Y024689D01*
X003834Y024729D01*
X003865Y024768D01*
X003899Y024803D01*
X003936Y024836D01*
X003975Y024865D01*
X004017Y024891D01*
X004060Y024914D01*
X004106Y024933D01*
X004152Y024949D01*
X004200Y024961D01*
X004248Y024969D01*
X004297Y024973D01*
X004347Y024973D01*
X004396Y024969D01*
X004444Y024961D01*
X004492Y024949D01*
X004538Y024933D01*
X004584Y024914D01*
X004627Y024891D01*
X004669Y024865D01*
X004708Y024836D01*
X004745Y024803D01*
X004779Y024768D01*
X004810Y024729D01*
X004838Y024689D01*
X004862Y024646D01*
X004883Y024602D01*
X004901Y024556D01*
X004914Y024509D01*
X004924Y024461D01*
X004930Y024412D01*
X004932Y024363D01*
X004930Y024314D01*
X004924Y024265D01*
X004914Y024217D01*
X004901Y024170D01*
X004883Y024124D01*
X004862Y024080D01*
X004838Y024037D01*
X004810Y023997D01*
X004779Y023958D01*
X004745Y023923D01*
X004708Y023890D01*
X004669Y023861D01*
X004627Y023835D01*
X004584Y023812D01*
X004538Y023793D01*
X004492Y023777D01*
X004444Y023765D01*
X004396Y023757D01*
X004347Y023753D01*
X004297Y023753D01*
X004248Y023757D01*
X004200Y023765D01*
X004152Y023777D01*
X004106Y023793D01*
X004060Y023812D01*
X004017Y023835D01*
X003975Y023861D01*
X003936Y023890D01*
X003899Y023923D01*
X003865Y023958D01*
X003834Y023997D01*
X003806Y024037D01*
X003782Y024080D01*
X003761Y024124D01*
X003743Y024170D01*
X003730Y024217D01*
X003720Y024265D01*
X003714Y024314D01*
X003712Y024363D01*
D12*
X019706Y022449D03*
X020060Y022449D03*
X020060Y021445D03*
X019706Y021445D03*
X013397Y007577D03*
X013043Y007577D03*
X013052Y006603D03*
X013407Y006603D03*
X013417Y005628D03*
X013062Y005628D03*
D13*
X015651Y005038D03*
X016320Y005038D03*
X016320Y003876D03*
X015651Y003876D03*
X015651Y007951D03*
X016320Y007951D03*
X004470Y013369D03*
X003800Y013369D03*
X003800Y014402D03*
X004470Y014402D03*
X004470Y017512D03*
X003800Y017512D03*
X003768Y009299D03*
X004437Y009299D03*
D14*
X009302Y013477D03*
X009302Y014461D03*
X009302Y015465D03*
X009302Y016489D03*
X009302Y017473D03*
X009302Y018477D03*
X009302Y019481D03*
X010306Y020485D03*
X011310Y020485D03*
X012314Y020485D03*
X013318Y020485D03*
X014302Y020485D03*
X015326Y019481D03*
X015346Y018477D03*
X015346Y017473D03*
X015346Y016489D03*
X015346Y015485D03*
X015346Y014481D03*
X015346Y013477D03*
X014302Y012453D03*
X013279Y012453D03*
X012294Y012453D03*
X011310Y012453D03*
X010306Y012453D03*
X020651Y021449D03*
X020651Y022453D03*
D15*
X003800Y021500D03*
X003800Y020500D03*
X003800Y019500D03*
D16*
X003781Y016489D03*
X004607Y016489D03*
X004607Y015445D03*
X003781Y015445D03*
X003791Y012325D03*
X004617Y012325D03*
D17*
X005497Y014258D03*
X005497Y014927D03*
X005497Y016978D03*
X005497Y017647D03*
X007890Y017647D03*
X007890Y016978D03*
X007890Y014927D03*
X007890Y014258D03*
D18*
X007097Y014229D03*
X007097Y014977D03*
X006270Y014603D03*
X007097Y016930D03*
X007097Y017678D03*
X006270Y017304D03*
D19*
X018948Y017292D03*
X018948Y016306D03*
X018948Y015306D03*
X018948Y014306D03*
X018948Y013306D03*
X018938Y012309D03*
X018938Y011309D03*
X018938Y010309D03*
X018938Y009309D03*
X018934Y008309D03*
X018934Y007306D03*
X018948Y018292D03*
X018948Y019292D03*
X018948Y020292D03*
X018934Y021449D03*
X018944Y022443D03*
D20*
X017964Y022433D02*
X017958Y022365D01*
X017940Y022299D01*
X017911Y022237D01*
X017872Y022180D01*
X017823Y022132D01*
X017767Y022093D01*
X017705Y022064D01*
X017638Y022046D01*
X017570Y022040D01*
X017502Y022046D01*
X017435Y022064D01*
X017373Y022093D01*
X017317Y022132D01*
X017268Y022180D01*
X017229Y022237D01*
X017200Y022299D01*
X017182Y022365D01*
X017176Y022433D01*
X017182Y022502D01*
X017200Y022568D01*
X017229Y022630D01*
X017268Y022687D01*
X017317Y022735D01*
X017373Y022774D01*
X017435Y022803D01*
X017502Y022821D01*
X017570Y022827D01*
X017638Y022821D01*
X017705Y022803D01*
X017767Y022774D01*
X017823Y022735D01*
X017872Y022687D01*
X017911Y022630D01*
X017940Y022568D01*
X017958Y022502D01*
X017964Y022433D01*
X017958Y022365D01*
X017940Y022299D01*
X017911Y022237D01*
X017872Y022180D01*
X017823Y022132D01*
X017767Y022093D01*
X017705Y022064D01*
X017638Y022046D01*
X017570Y022040D01*
X017502Y022046D01*
X017435Y022064D01*
X017373Y022093D01*
X017317Y022132D01*
X017268Y022180D01*
X017229Y022237D01*
X017200Y022299D01*
X017182Y022365D01*
X017176Y022433D01*
X017182Y022502D01*
X017200Y022568D01*
X017229Y022630D01*
X017268Y022687D01*
X017317Y022735D01*
X017373Y022774D01*
X017435Y022803D01*
X017502Y022821D01*
X017570Y022827D01*
X017638Y022821D01*
X017705Y022803D01*
X017767Y022774D01*
X017823Y022735D01*
X017872Y022687D01*
X017911Y022630D01*
X017940Y022568D01*
X017958Y022502D01*
X017964Y022433D01*
X017963Y022442D02*
X017177Y022442D01*
X017963Y022442D01*
X017960Y022394D02*
X017180Y022394D01*
X017960Y022394D01*
X017953Y022345D02*
X017188Y022345D01*
X017953Y022345D01*
X017939Y022297D02*
X017201Y022297D01*
X017939Y022297D01*
X017917Y022248D02*
X017224Y022248D01*
X017917Y022248D01*
X017885Y022200D02*
X017255Y022200D01*
X017885Y022200D01*
X017843Y022151D02*
X017297Y022151D01*
X017843Y022151D01*
X017782Y022103D02*
X017358Y022103D01*
X017782Y022103D01*
X017671Y022054D02*
X017469Y022054D01*
X017671Y022054D01*
X017959Y022491D02*
X017181Y022491D01*
X017959Y022491D01*
X017948Y022539D02*
X017192Y022539D01*
X017948Y022539D01*
X017931Y022588D02*
X017209Y022588D01*
X017931Y022588D01*
X017907Y022636D02*
X017233Y022636D01*
X017907Y022636D01*
X017873Y022685D02*
X017267Y022685D01*
X017873Y022685D01*
X017825Y022733D02*
X017315Y022733D01*
X017825Y022733D01*
X017751Y022782D02*
X017389Y022782D01*
X017751Y022782D01*
X007092Y018890D02*
X007098Y018821D01*
X007092Y018753D01*
X007074Y018687D01*
X007045Y018624D01*
X007006Y018568D01*
X006957Y018520D01*
X006901Y018480D01*
X006839Y018451D01*
X006772Y018434D01*
X006704Y018428D01*
X006636Y018434D01*
X006569Y018451D01*
X006507Y018480D01*
X006451Y018520D01*
X006402Y018568D01*
X006363Y018624D01*
X006334Y018687D01*
X006316Y018753D01*
X006310Y018821D01*
X006316Y018890D01*
X006334Y018956D01*
X006363Y019018D01*
X006402Y019074D01*
X006451Y019123D01*
X006507Y019162D01*
X006569Y019191D01*
X006636Y019209D01*
X006704Y019215D01*
X006772Y019209D01*
X006839Y019191D01*
X006901Y019162D01*
X006957Y019123D01*
X007006Y019074D01*
X007045Y019018D01*
X007074Y018956D01*
X007092Y018890D01*
X007074Y018956D01*
X007045Y019018D01*
X007006Y019074D01*
X006957Y019123D01*
X006901Y019162D01*
X006839Y019191D01*
X006772Y019209D01*
X006704Y019215D01*
X006636Y019209D01*
X006569Y019191D01*
X006507Y019162D01*
X006451Y019123D01*
X006402Y019074D01*
X006363Y019018D01*
X006334Y018956D01*
X006316Y018890D01*
X006310Y018821D01*
X006316Y018753D01*
X006334Y018687D01*
X006363Y018624D01*
X006402Y018568D01*
X006451Y018520D01*
X006507Y018480D01*
X006569Y018451D01*
X006636Y018434D01*
X006704Y018428D01*
X006772Y018434D01*
X006839Y018451D01*
X006901Y018480D01*
X006957Y018520D01*
X007006Y018568D01*
X007045Y018624D01*
X007074Y018687D01*
X007092Y018753D01*
X007098Y018821D01*
X007092Y018890D01*
X007088Y018902D02*
X006320Y018902D01*
X007088Y018902D01*
X007095Y018853D02*
X006313Y018853D01*
X007095Y018853D01*
X007096Y018805D02*
X006312Y018805D01*
X007096Y018805D01*
X007092Y018756D02*
X006316Y018756D01*
X007092Y018756D01*
X007080Y018708D02*
X006328Y018708D01*
X007080Y018708D01*
X007061Y018659D02*
X006347Y018659D01*
X007061Y018659D01*
X007035Y018611D02*
X006372Y018611D01*
X007035Y018611D01*
X007000Y018562D02*
X006408Y018562D01*
X007000Y018562D01*
X006949Y018514D02*
X006459Y018514D01*
X006949Y018514D01*
X006869Y018465D02*
X006539Y018465D01*
X006869Y018465D01*
X007075Y018950D02*
X006333Y018950D01*
X007075Y018950D01*
X007054Y018999D02*
X006354Y018999D01*
X007054Y018999D01*
X007024Y019047D02*
X006384Y019047D01*
X007024Y019047D01*
X006984Y019096D02*
X006424Y019096D01*
X006984Y019096D01*
X006926Y019144D02*
X006482Y019144D01*
X006926Y019144D01*
X006832Y019193D02*
X006576Y019193D01*
X006832Y019193D01*
X006300Y010081D02*
X006232Y010075D01*
X006166Y010057D01*
X006104Y010028D01*
X006047Y009989D01*
X005999Y009940D01*
X005959Y009884D01*
X005930Y009822D01*
X005913Y009756D01*
X005907Y009687D01*
X006694Y009687D01*
X005907Y009687D01*
X005913Y009619D01*
X005930Y009553D01*
X005959Y009491D01*
X005999Y009434D01*
X006047Y009386D01*
X006104Y009346D01*
X006166Y009317D01*
X006232Y009300D01*
X006300Y009294D01*
X006369Y009300D01*
X006435Y009317D01*
X006497Y009346D01*
X006553Y009386D01*
X006602Y009434D01*
X006641Y009491D01*
X006670Y009553D01*
X006688Y009619D01*
X006694Y009687D01*
X006688Y009756D01*
X006670Y009822D01*
X006641Y009884D01*
X006602Y009940D01*
X006553Y009989D01*
X006497Y010028D01*
X006435Y010057D01*
X006369Y010075D01*
X006300Y010081D01*
X006232Y010075D01*
X006166Y010057D01*
X006104Y010028D01*
X006047Y009989D01*
X005999Y009940D01*
X005959Y009884D01*
X005930Y009822D01*
X005913Y009756D01*
X005907Y009687D01*
X005913Y009619D01*
X005930Y009553D01*
X005959Y009491D01*
X005999Y009434D01*
X006047Y009386D01*
X006104Y009346D01*
X006166Y009317D01*
X006232Y009300D01*
X006300Y009294D01*
X006369Y009300D01*
X006435Y009317D01*
X006497Y009346D01*
X006553Y009386D01*
X006602Y009434D01*
X006641Y009491D01*
X006670Y009553D01*
X006688Y009619D01*
X006694Y009687D01*
X006688Y009756D01*
X006670Y009822D01*
X006641Y009884D01*
X006602Y009940D01*
X006553Y009989D01*
X006497Y010028D01*
X006435Y010057D01*
X006369Y010075D01*
X006300Y010081D01*
X006231Y010075D02*
X006370Y010075D01*
X006231Y010075D01*
X006101Y010026D02*
X006500Y010026D01*
X006101Y010026D01*
X006036Y009978D02*
X006565Y009978D01*
X006036Y009978D01*
X005991Y009929D02*
X006610Y009929D01*
X005991Y009929D01*
X005958Y009881D02*
X006643Y009881D01*
X005958Y009881D01*
X005935Y009832D02*
X006666Y009832D01*
X005935Y009832D01*
X005920Y009784D02*
X006681Y009784D01*
X005920Y009784D01*
X005911Y009735D02*
X006690Y009735D01*
X005911Y009735D01*
X005911Y009638D02*
X006690Y009638D01*
X005911Y009638D01*
X005920Y009590D02*
X006680Y009590D01*
X005920Y009590D01*
X005936Y009541D02*
X006665Y009541D01*
X005936Y009541D01*
X005958Y009493D02*
X006642Y009493D01*
X005958Y009493D01*
X005992Y009444D02*
X006609Y009444D01*
X005992Y009444D01*
X006037Y009396D02*
X006564Y009396D01*
X006037Y009396D01*
X006102Y009347D02*
X006499Y009347D01*
X006102Y009347D01*
X006241Y009299D02*
X006359Y009299D01*
X006241Y009299D01*
X018558Y004035D02*
X018541Y003968D01*
X018535Y003900D01*
X018541Y003832D01*
X018558Y003765D01*
X018587Y003703D01*
X018627Y003647D01*
X018675Y003598D01*
X018731Y003559D01*
X018794Y003530D01*
X018860Y003512D01*
X018928Y003506D01*
X018997Y003512D01*
X019063Y003530D01*
X019125Y003559D01*
X019181Y003598D01*
X019230Y003647D01*
X019269Y003703D01*
X019298Y003765D01*
X019316Y003832D01*
X019322Y003900D01*
X019316Y003968D01*
X019298Y004035D01*
X019269Y004097D01*
X019230Y004153D01*
X019181Y004202D01*
X019125Y004241D01*
X019063Y004270D01*
X018997Y004288D01*
X018928Y004294D01*
X018860Y004288D01*
X018794Y004270D01*
X018731Y004241D01*
X018675Y004202D01*
X018627Y004153D01*
X018587Y004097D01*
X018558Y004035D01*
X018541Y003968D01*
X018535Y003900D01*
X018541Y003832D01*
X018558Y003765D01*
X018587Y003703D01*
X018627Y003647D01*
X018675Y003598D01*
X018731Y003559D01*
X018794Y003530D01*
X018860Y003512D01*
X018928Y003506D01*
X018997Y003512D01*
X019063Y003530D01*
X019125Y003559D01*
X019181Y003598D01*
X019230Y003647D01*
X019269Y003703D01*
X019298Y003765D01*
X019316Y003832D01*
X019322Y003900D01*
X019316Y003968D01*
X019298Y004035D01*
X019269Y004097D01*
X019230Y004153D01*
X019181Y004202D01*
X019125Y004241D01*
X019063Y004270D01*
X018997Y004288D01*
X018928Y004294D01*
X018860Y004288D01*
X018794Y004270D01*
X018731Y004241D01*
X018675Y004202D01*
X018627Y004153D01*
X018587Y004097D01*
X018558Y004035D01*
X018552Y004012D02*
X019304Y004012D01*
X018552Y004012D01*
X018540Y003964D02*
X019316Y003964D01*
X018540Y003964D01*
X018536Y003915D02*
X019321Y003915D01*
X018536Y003915D01*
X018538Y003867D02*
X019319Y003867D01*
X018538Y003867D01*
X018544Y003818D02*
X019313Y003818D01*
X018544Y003818D01*
X018557Y003770D02*
X019300Y003770D01*
X018557Y003770D01*
X018579Y003721D02*
X019278Y003721D01*
X018579Y003721D01*
X018609Y003673D02*
X019248Y003673D01*
X018609Y003673D01*
X018649Y003624D02*
X019207Y003624D01*
X018649Y003624D01*
X018708Y003576D02*
X019149Y003576D01*
X018708Y003576D01*
X018804Y003527D02*
X019053Y003527D01*
X018804Y003527D01*
X018571Y004061D02*
X019286Y004061D01*
X018571Y004061D01*
X018596Y004109D02*
X019261Y004109D01*
X018596Y004109D01*
X018632Y004158D02*
X019225Y004158D01*
X018632Y004158D01*
X018682Y004206D02*
X019175Y004206D01*
X018682Y004206D01*
X018761Y004255D02*
X019095Y004255D01*
X018761Y004255D01*
D21*
X017846Y011626D03*
X017846Y012020D03*
X017294Y012020D03*
X017294Y011626D03*
X017294Y013605D03*
X017294Y013998D03*
X017846Y013998D03*
X017846Y013605D03*
X017846Y015613D03*
X017846Y016006D03*
X017294Y016006D03*
X017294Y015613D03*
X017304Y017601D03*
X017304Y017994D03*
X017856Y017994D03*
X017856Y017601D03*
X017856Y019589D03*
X017856Y019983D03*
X017304Y019983D03*
X017304Y019589D03*
D22*
X005149Y011065D03*
X005149Y010199D03*
X003731Y010199D03*
X003731Y011065D03*
D23*
X023113Y022445D03*
D24*
X023113Y021445D03*
X023113Y020445D03*
X023113Y019445D03*
X023113Y018445D03*
X023113Y017445D03*
X023113Y016445D03*
X023113Y015445D03*
X023113Y014445D03*
X023113Y013445D03*
X023113Y012445D03*
X023113Y011445D03*
X023113Y010445D03*
X023113Y009445D03*
X023113Y008445D03*
X023113Y007445D03*
X023113Y006445D03*
X023113Y005445D03*
X023113Y004445D03*
X023113Y003445D03*
X024113Y003445D03*
X024113Y004445D03*
X024113Y005445D03*
X024113Y006445D03*
X024113Y007445D03*
X024113Y008445D03*
X024113Y009445D03*
X024113Y010445D03*
X024113Y011445D03*
X024113Y012445D03*
X024113Y013445D03*
X024113Y014445D03*
X024113Y015445D03*
X024113Y016445D03*
X024113Y017445D03*
X024113Y018445D03*
X024113Y019445D03*
X024113Y020445D03*
X024113Y021445D03*
X024113Y022445D03*
D25*
X017186Y006863D03*
X017186Y006607D03*
X017186Y006351D03*
X017186Y006095D03*
X014883Y006095D03*
X014883Y006351D03*
X014883Y006607D03*
X014883Y006863D03*
D26*
X003850Y020504D03*
M02*
