G75*
%MOIN*%
%OFA0B0*%
%FSLAX24Y24*%
%IPPOS*%
%LPD*%
%AMOC8*
5,1,8,0,0,1.08239X$1,22.5*
%
%ADD10R,0.1600X0.0600*%
%ADD11C,0.0700*%
%ADD12R,0.0600X0.0600*%
%ADD13OC8,0.0600*%
%ADD14C,0.0100*%
%ADD15C,0.0278*%
%ADD16C,0.0591*%
D10*
X003800Y019500D03*
X003800Y021500D03*
D11*
X018934Y021449D03*
X018944Y022443D03*
X018948Y020292D03*
X018948Y019292D03*
X018948Y018292D03*
X018948Y017292D03*
X018948Y016306D03*
X018948Y015306D03*
X018948Y014306D03*
X018948Y013306D03*
X018938Y012309D03*
X018938Y011309D03*
X018938Y010309D03*
X018938Y009309D03*
X018934Y008309D03*
X018934Y007306D03*
D12*
X023113Y022445D03*
D13*
X023113Y021445D03*
X023113Y020445D03*
X023113Y019445D03*
X023113Y018445D03*
X023113Y017445D03*
X023113Y016445D03*
X023113Y015445D03*
X023113Y014445D03*
X023113Y013445D03*
X023113Y012445D03*
X023113Y011445D03*
X023113Y010445D03*
X023113Y009445D03*
X023113Y008445D03*
X023113Y007445D03*
X023113Y006445D03*
X023113Y005445D03*
X023113Y004445D03*
X023113Y003445D03*
X024113Y003445D03*
X024113Y004445D03*
X024113Y005445D03*
X024113Y006445D03*
X024113Y007445D03*
X024113Y008445D03*
X024113Y009445D03*
X024113Y010445D03*
X024113Y011445D03*
X024113Y012445D03*
X024113Y013445D03*
X024113Y014445D03*
X024113Y015445D03*
X024113Y016445D03*
X024113Y017445D03*
X024113Y018445D03*
X024113Y019445D03*
X024113Y020445D03*
X024113Y021445D03*
X024113Y022445D03*
D14*
X003394Y007180D02*
X003394Y002383D01*
X003687Y002628D01*
X004101Y002779D01*
X004543Y002779D01*
X004957Y002628D01*
X005295Y002345D01*
X005516Y001962D01*
X005593Y001528D01*
X005516Y001093D01*
X005295Y000711D01*
X005163Y000600D01*
X022773Y000600D01*
X022640Y000711D01*
X022420Y001093D01*
X022343Y001528D01*
X022420Y001962D01*
X022640Y002345D01*
X022978Y002628D01*
X023393Y002779D01*
X023834Y002779D01*
X024249Y002628D01*
X024541Y002383D01*
X024541Y003265D01*
X024291Y003015D01*
X023935Y003015D01*
X023683Y003267D01*
X023683Y003623D01*
X023935Y003875D01*
X024291Y003875D01*
X024541Y003625D01*
X024541Y004265D01*
X024291Y004015D01*
X023935Y004015D01*
X023683Y004267D01*
X023683Y004623D01*
X023935Y004875D01*
X024291Y004875D01*
X024541Y004625D01*
X024541Y005265D01*
X024291Y005015D01*
X023935Y005015D01*
X023683Y005267D01*
X023683Y005623D01*
X023935Y005875D01*
X024291Y005875D01*
X024541Y005625D01*
X024541Y006237D01*
X024300Y005995D01*
X024163Y005995D01*
X024163Y006395D01*
X024063Y006395D01*
X023663Y006395D01*
X023663Y006259D01*
X023927Y005995D01*
X024063Y005995D01*
X024063Y006395D01*
X024063Y006495D01*
X023663Y006495D01*
X023663Y006632D01*
X023927Y006895D01*
X024063Y006895D01*
X024063Y006495D01*
X024163Y006495D01*
X024163Y006895D01*
X024300Y006895D01*
X024541Y006654D01*
X024541Y007265D01*
X024291Y007015D01*
X023935Y007015D01*
X023683Y007267D01*
X023683Y007623D01*
X023935Y007875D01*
X024291Y007875D01*
X024541Y007625D01*
X024541Y008237D01*
X024300Y007995D01*
X024163Y007995D01*
X024163Y008395D01*
X024063Y008395D01*
X023663Y008395D01*
X023663Y008259D01*
X023927Y007995D01*
X024063Y007995D01*
X024063Y008395D01*
X024063Y008495D01*
X023663Y008495D01*
X023663Y008632D01*
X023927Y008895D01*
X024063Y008895D01*
X024063Y008495D01*
X024163Y008495D01*
X024163Y008895D01*
X024300Y008895D01*
X024541Y008654D01*
X024541Y009265D01*
X024291Y009015D01*
X023935Y009015D01*
X023683Y009267D01*
X023683Y009623D01*
X023935Y009875D01*
X024291Y009875D01*
X024541Y009625D01*
X024541Y010265D01*
X024291Y010015D01*
X023935Y010015D01*
X023683Y010267D01*
X023683Y010623D01*
X023935Y010875D01*
X024291Y010875D01*
X024541Y010625D01*
X024541Y011265D01*
X024291Y011015D01*
X023935Y011015D01*
X023683Y011267D01*
X023683Y011623D01*
X023935Y011875D01*
X024291Y011875D01*
X024541Y011625D01*
X024541Y012265D01*
X024291Y012015D01*
X023935Y012015D01*
X023683Y012267D01*
X023683Y012623D01*
X023935Y012875D01*
X024291Y012875D01*
X024541Y012625D01*
X024541Y013237D01*
X024300Y012995D01*
X024163Y012995D01*
X024163Y013395D01*
X024063Y013395D01*
X023663Y013395D01*
X023663Y013259D01*
X023927Y012995D01*
X024063Y012995D01*
X024063Y013395D01*
X024063Y013495D01*
X023663Y013495D01*
X023663Y013632D01*
X023927Y013895D01*
X024063Y013895D01*
X024063Y013495D01*
X024163Y013495D01*
X024163Y013895D01*
X024300Y013895D01*
X024541Y013654D01*
X024541Y014265D01*
X024291Y014015D01*
X023935Y014015D01*
X023683Y014267D01*
X023683Y014623D01*
X023935Y014875D01*
X024291Y014875D01*
X024541Y014625D01*
X024541Y015265D01*
X024291Y015015D01*
X023935Y015015D01*
X023683Y015267D01*
X023683Y015623D01*
X023935Y015875D01*
X024291Y015875D01*
X024541Y015625D01*
X024541Y016237D01*
X024300Y015995D01*
X024163Y015995D01*
X024163Y016395D01*
X024063Y016395D01*
X023663Y016395D01*
X023663Y016259D01*
X023927Y015995D01*
X024063Y015995D01*
X024063Y016395D01*
X024063Y016495D01*
X023663Y016495D01*
X023663Y016632D01*
X023927Y016895D01*
X024063Y016895D01*
X024063Y016495D01*
X024163Y016495D01*
X024163Y016895D01*
X024300Y016895D01*
X024541Y016654D01*
X024541Y017265D01*
X024291Y017015D01*
X023935Y017015D01*
X023683Y017267D01*
X023683Y017623D01*
X023935Y017875D01*
X024291Y017875D01*
X024541Y017625D01*
X024541Y018265D01*
X024291Y018015D01*
X023935Y018015D01*
X023683Y018267D01*
X023683Y018623D01*
X023935Y018875D01*
X024291Y018875D01*
X024541Y018625D01*
X024541Y019265D01*
X024291Y019015D01*
X023935Y019015D01*
X023683Y019267D01*
X023683Y019621D01*
X023614Y019690D01*
X023586Y019718D01*
X023561Y019743D01*
X023551Y019752D01*
X023525Y019762D01*
X023512Y019763D01*
X023403Y019763D01*
X023543Y019623D01*
X023543Y019267D01*
X023291Y019015D01*
X022935Y019015D01*
X022683Y019267D01*
X022683Y019623D01*
X022823Y019763D01*
X022355Y019763D01*
X022109Y019829D01*
X022109Y019829D01*
X021889Y019957D01*
X021889Y019957D01*
X021852Y019994D01*
X021763Y020083D01*
X021746Y020099D01*
X021689Y020157D01*
X021621Y020157D01*
X021522Y020197D01*
X021446Y020273D01*
X021405Y020372D01*
X021405Y020479D01*
X021446Y020578D01*
X021522Y020654D01*
X021621Y020695D01*
X021728Y020695D01*
X021827Y020654D01*
X021903Y020578D01*
X021943Y020479D01*
X021943Y020411D01*
X022001Y020354D01*
X022017Y020338D01*
X022053Y020301D01*
X022113Y020249D01*
X022250Y020170D01*
X022404Y020129D01*
X022483Y020123D01*
X022827Y020123D01*
X022683Y020267D01*
X022683Y020623D01*
X022817Y020757D01*
X022802Y020757D01*
X022753Y020708D01*
X019197Y020708D01*
X019220Y020699D01*
X019355Y020564D01*
X019428Y020387D01*
X019428Y020196D01*
X019355Y020020D01*
X019220Y019885D01*
X019044Y019812D01*
X018853Y019812D01*
X018676Y019885D01*
X018541Y020020D01*
X018468Y020196D01*
X018468Y020387D01*
X018541Y020564D01*
X018676Y020699D01*
X018699Y020708D01*
X017792Y020708D01*
X017778Y020707D01*
X017753Y020696D01*
X017742Y020688D01*
X012978Y015924D01*
X012978Y015924D01*
X012935Y015881D01*
X012935Y015881D01*
X012685Y015777D01*
X005969Y015777D01*
X005921Y015729D01*
X005822Y015688D01*
X005715Y015688D01*
X005616Y015729D01*
X005541Y015805D01*
X005500Y015904D01*
X005500Y016011D01*
X005541Y016109D01*
X005616Y016185D01*
X005715Y016226D01*
X005822Y016226D01*
X005921Y016185D01*
X005969Y016137D01*
X012550Y016137D01*
X012612Y016143D01*
X012728Y016191D01*
X012776Y016231D01*
X017540Y020995D01*
X017540Y020995D01*
X017548Y021003D01*
X017706Y021068D01*
X018636Y021068D01*
X018527Y021177D01*
X018494Y021259D01*
X017830Y021243D01*
X017790Y021239D01*
X017716Y021207D01*
X017684Y021181D01*
X013466Y016962D01*
X013413Y016910D01*
X013360Y016857D01*
X013360Y016857D01*
X013332Y016829D01*
X013332Y016829D01*
X013122Y016742D01*
X006373Y016742D01*
X006189Y016728D01*
X005838Y016621D01*
X005533Y016416D01*
X005302Y016130D01*
X005164Y015790D01*
X005135Y015613D01*
X005135Y015131D01*
X005190Y015076D01*
X005231Y014977D01*
X005231Y014870D01*
X005190Y014771D01*
X005114Y014696D01*
X005015Y014655D01*
X004908Y014655D01*
X004809Y014696D01*
X004734Y014771D01*
X004693Y014870D01*
X004693Y014977D01*
X004734Y015076D01*
X004775Y015118D01*
X004775Y015559D01*
X004769Y015566D01*
X004775Y015632D01*
X004775Y015699D01*
X004782Y015705D01*
X004797Y015879D01*
X004797Y015879D01*
X004977Y016322D01*
X004977Y016322D01*
X005278Y016694D01*
X005278Y016694D01*
X005278Y016694D01*
X005675Y016962D01*
X005675Y016962D01*
X006133Y017102D01*
X013007Y017102D01*
X013049Y017106D01*
X013126Y017138D01*
X013159Y017164D01*
X013211Y017217D01*
X017482Y021488D01*
X017482Y021488D01*
X017508Y021514D01*
X017508Y021514D01*
X017711Y021601D01*
X017711Y021601D01*
X017747Y021602D01*
X017747Y021602D01*
X017856Y021604D01*
X017897Y021605D01*
X017897Y021605D01*
X018485Y021619D01*
X018527Y021721D01*
X018662Y021856D01*
X018839Y021929D01*
X019030Y021929D01*
X019206Y021856D01*
X019341Y021721D01*
X019414Y021545D01*
X019414Y021354D01*
X019341Y021177D01*
X019232Y021068D01*
X022604Y021068D01*
X022653Y021117D01*
X022833Y021117D01*
X022683Y021267D01*
X022683Y021623D01*
X022935Y021875D01*
X023291Y021875D01*
X023543Y021623D01*
X023543Y021267D01*
X023394Y021117D01*
X023502Y021117D01*
X023516Y021119D01*
X023541Y021129D01*
X023551Y021138D01*
X023683Y021270D01*
X023683Y021623D01*
X023935Y021875D01*
X024291Y021875D01*
X024541Y021625D01*
X024541Y022265D01*
X024291Y022015D01*
X023935Y022015D01*
X023683Y022267D01*
X023683Y022623D01*
X023935Y022875D01*
X024291Y022875D01*
X024541Y022625D01*
X024541Y023508D01*
X024249Y023262D01*
X023834Y023111D01*
X023393Y023111D01*
X022978Y023262D01*
X022640Y023546D01*
X022420Y023928D01*
X022343Y024363D01*
X022420Y024797D01*
X022640Y025179D01*
X022773Y025291D01*
X017764Y025291D01*
X017764Y023998D01*
X017636Y023688D01*
X017636Y023688D01*
X017398Y023450D01*
X017398Y023450D01*
X017088Y023322D01*
X010847Y023322D01*
X010537Y023450D01*
X010537Y023450D01*
X010300Y023688D01*
X010300Y023688D01*
X010171Y023998D01*
X010171Y025291D01*
X005163Y025291D01*
X005295Y025179D01*
X005516Y024797D01*
X005593Y024363D01*
X005516Y023928D01*
X005295Y023546D01*
X004957Y023262D01*
X004543Y023111D01*
X004101Y023111D01*
X003687Y023262D01*
X003394Y023508D01*
X003394Y021950D01*
X003750Y021950D01*
X003750Y021550D01*
X003850Y021550D01*
X003850Y021950D01*
X004620Y021950D01*
X004658Y021940D01*
X004692Y021920D01*
X004720Y021892D01*
X004740Y021858D01*
X004750Y021820D01*
X004750Y021550D01*
X003850Y021550D01*
X003850Y021450D01*
X003850Y021050D01*
X004620Y021050D01*
X004658Y021061D01*
X004692Y021080D01*
X004720Y021108D01*
X004740Y021142D01*
X004750Y021181D01*
X004750Y021450D01*
X003850Y021450D01*
X003750Y021450D01*
X003750Y021050D01*
X003394Y021050D01*
X003394Y019950D01*
X003750Y019950D01*
X003750Y019550D01*
X003850Y019550D01*
X003850Y019950D01*
X004620Y019950D01*
X004658Y019940D01*
X004692Y019920D01*
X004720Y019892D01*
X004740Y019858D01*
X004750Y019820D01*
X004750Y019550D01*
X003850Y019550D01*
X003850Y019450D01*
X003850Y019050D01*
X004620Y019050D01*
X004658Y019061D01*
X004692Y019080D01*
X004720Y019108D01*
X004740Y019142D01*
X004750Y019181D01*
X004750Y019450D01*
X003850Y019450D01*
X003750Y019450D01*
X003750Y019050D01*
X003394Y019050D01*
X003394Y008868D01*
X010592Y008868D01*
X010902Y008739D01*
X010902Y008739D01*
X011140Y008502D01*
X011140Y008502D01*
X011268Y008192D01*
X011268Y007856D01*
X011140Y007546D01*
X011140Y007546D01*
X010902Y007309D01*
X010902Y007309D01*
X010592Y007180D01*
X003394Y007180D01*
X003394Y007085D02*
X016170Y007085D01*
X016178Y007077D02*
X016276Y007036D01*
X016383Y007036D01*
X016482Y007077D01*
X016530Y007126D01*
X018489Y007126D01*
X018527Y007034D01*
X018662Y006899D01*
X018839Y006826D01*
X019030Y006826D01*
X019206Y006899D01*
X019341Y007034D01*
X019414Y007210D01*
X019414Y007401D01*
X019341Y007577D01*
X022683Y007577D01*
X022683Y007623D02*
X022683Y007267D01*
X022935Y007015D01*
X023291Y007015D01*
X023543Y007267D01*
X023543Y007623D01*
X023291Y007875D01*
X022935Y007875D01*
X022683Y007623D01*
X022736Y007676D02*
X019243Y007676D01*
X019206Y007712D02*
X019030Y007786D01*
X018839Y007786D01*
X018662Y007712D01*
X018527Y007577D01*
X011153Y007577D01*
X011193Y007676D02*
X018626Y007676D01*
X018527Y007577D02*
X018489Y007486D01*
X016530Y007486D01*
X016482Y007534D01*
X016383Y007575D01*
X016276Y007575D01*
X016178Y007534D01*
X016102Y007458D01*
X016061Y007359D01*
X016061Y007252D01*
X016102Y007153D01*
X016178Y007077D01*
X016089Y007183D02*
X010600Y007183D01*
X010837Y007282D02*
X016061Y007282D01*
X016070Y007380D02*
X010974Y007380D01*
X011072Y007479D02*
X016123Y007479D01*
X016330Y007306D02*
X018934Y007306D01*
X019382Y007479D02*
X022683Y007479D01*
X022683Y007380D02*
X019414Y007380D01*
X019414Y007282D02*
X022683Y007282D01*
X022767Y007183D02*
X019403Y007183D01*
X019362Y007085D02*
X022866Y007085D01*
X022935Y006875D02*
X022683Y006623D01*
X022683Y006267D01*
X022935Y006015D01*
X023291Y006015D01*
X023543Y006267D01*
X023543Y006623D01*
X023291Y006875D01*
X022935Y006875D01*
X022849Y006789D02*
X003394Y006789D01*
X003394Y006691D02*
X022751Y006691D01*
X022683Y006592D02*
X003394Y006592D01*
X003394Y006494D02*
X022683Y006494D01*
X022683Y006395D02*
X003394Y006395D01*
X003394Y006297D02*
X022683Y006297D01*
X022752Y006198D02*
X003394Y006198D01*
X003394Y006100D02*
X022851Y006100D01*
X022935Y005875D02*
X022683Y005623D01*
X022683Y005267D01*
X022935Y005015D01*
X023291Y005015D01*
X023543Y005267D01*
X023543Y005623D01*
X023291Y005875D01*
X022935Y005875D01*
X022864Y005804D02*
X003394Y005804D01*
X003394Y005706D02*
X022766Y005706D01*
X022683Y005607D02*
X003394Y005607D01*
X003394Y005509D02*
X022683Y005509D01*
X022683Y005410D02*
X003394Y005410D01*
X003394Y005312D02*
X022683Y005312D01*
X022737Y005213D02*
X003394Y005213D01*
X003394Y005115D02*
X022836Y005115D01*
X022934Y005016D02*
X003394Y005016D01*
X003394Y004918D02*
X024541Y004918D01*
X024541Y005016D02*
X024293Y005016D01*
X024391Y005115D02*
X024541Y005115D01*
X024541Y005213D02*
X024490Y005213D01*
X024541Y004819D02*
X024347Y004819D01*
X024446Y004721D02*
X024541Y004721D01*
X024541Y004228D02*
X024505Y004228D01*
X024541Y004130D02*
X024406Y004130D01*
X024308Y004031D02*
X024541Y004031D01*
X024541Y003933D02*
X003394Y003933D01*
X003394Y004031D02*
X022919Y004031D01*
X022935Y004015D02*
X023291Y004015D01*
X023543Y004267D01*
X023543Y004623D01*
X023291Y004875D01*
X022935Y004875D01*
X022683Y004623D01*
X022683Y004267D01*
X022935Y004015D01*
X022927Y003895D02*
X022663Y003632D01*
X022663Y003495D01*
X023063Y003495D01*
X023063Y003395D01*
X022663Y003395D01*
X022663Y003259D01*
X022927Y002995D01*
X023063Y002995D01*
X023063Y003395D01*
X023163Y003395D01*
X023163Y002995D01*
X023300Y002995D01*
X023563Y003259D01*
X023563Y003395D01*
X023163Y003395D01*
X023163Y003495D01*
X023063Y003495D01*
X023063Y003895D01*
X022927Y003895D01*
X022866Y003834D02*
X003394Y003834D01*
X003394Y003736D02*
X022768Y003736D01*
X022669Y003637D02*
X003394Y003637D01*
X003394Y003539D02*
X022663Y003539D01*
X022663Y003342D02*
X003394Y003342D01*
X003394Y003440D02*
X023063Y003440D01*
X023063Y003342D02*
X023163Y003342D01*
X023163Y003440D02*
X023683Y003440D01*
X023683Y003342D02*
X023563Y003342D01*
X023548Y003243D02*
X023707Y003243D01*
X023806Y003145D02*
X023449Y003145D01*
X023351Y003046D02*
X023904Y003046D01*
X023912Y002751D02*
X024541Y002751D01*
X024541Y002849D02*
X003394Y002849D01*
X003394Y002751D02*
X004024Y002751D01*
X003753Y002652D02*
X003394Y002652D01*
X003394Y002554D02*
X003598Y002554D01*
X003481Y002455D02*
X003394Y002455D01*
X003394Y002948D02*
X024541Y002948D01*
X024541Y003046D02*
X024323Y003046D01*
X024421Y003145D02*
X024541Y003145D01*
X024541Y003243D02*
X024520Y003243D01*
X024529Y003637D02*
X024541Y003637D01*
X024541Y003736D02*
X024431Y003736D01*
X024332Y003834D02*
X024541Y003834D01*
X023919Y004031D02*
X023308Y004031D01*
X023300Y003895D02*
X023163Y003895D01*
X023163Y003495D01*
X023563Y003495D01*
X023563Y003632D01*
X023300Y003895D01*
X023361Y003834D02*
X023894Y003834D01*
X023796Y003736D02*
X023459Y003736D01*
X023558Y003637D02*
X023697Y003637D01*
X023683Y003539D02*
X023563Y003539D01*
X023163Y003539D02*
X023063Y003539D01*
X023063Y003637D02*
X023163Y003637D01*
X023163Y003736D02*
X023063Y003736D01*
X023063Y003834D02*
X023163Y003834D01*
X023406Y004130D02*
X023821Y004130D01*
X023722Y004228D02*
X023505Y004228D01*
X023543Y004327D02*
X023683Y004327D01*
X023683Y004425D02*
X023543Y004425D01*
X023543Y004524D02*
X023683Y004524D01*
X023683Y004622D02*
X023543Y004622D01*
X023446Y004721D02*
X023781Y004721D01*
X023879Y004819D02*
X023347Y004819D01*
X023293Y005016D02*
X023934Y005016D01*
X023836Y005115D02*
X023391Y005115D01*
X023490Y005213D02*
X023737Y005213D01*
X023683Y005312D02*
X023543Y005312D01*
X023543Y005410D02*
X023683Y005410D01*
X023683Y005509D02*
X023543Y005509D01*
X023543Y005607D02*
X023683Y005607D01*
X023766Y005706D02*
X023461Y005706D01*
X023362Y005804D02*
X023864Y005804D01*
X023921Y006001D02*
X003394Y006001D01*
X003394Y005903D02*
X024541Y005903D01*
X024541Y006001D02*
X024306Y006001D01*
X024404Y006100D02*
X024541Y006100D01*
X024541Y006198D02*
X024503Y006198D01*
X024541Y005804D02*
X024362Y005804D01*
X024461Y005706D02*
X024541Y005706D01*
X024163Y006001D02*
X024063Y006001D01*
X024063Y006100D02*
X024163Y006100D01*
X024163Y006198D02*
X024063Y006198D01*
X024063Y006297D02*
X024163Y006297D01*
X024063Y006395D02*
X023543Y006395D01*
X023543Y006297D02*
X023663Y006297D01*
X023724Y006198D02*
X023475Y006198D01*
X023376Y006100D02*
X023822Y006100D01*
X024063Y006494D02*
X023543Y006494D01*
X023543Y006592D02*
X023663Y006592D01*
X023723Y006691D02*
X023476Y006691D01*
X023377Y006789D02*
X023821Y006789D01*
X023920Y006888D02*
X019180Y006888D01*
X019294Y006986D02*
X024541Y006986D01*
X024541Y006888D02*
X024307Y006888D01*
X024406Y006789D02*
X024541Y006789D01*
X024541Y006691D02*
X024504Y006691D01*
X024163Y006691D02*
X024063Y006691D01*
X024063Y006789D02*
X024163Y006789D01*
X024163Y006888D02*
X024063Y006888D01*
X023866Y007085D02*
X023361Y007085D01*
X023460Y007183D02*
X023767Y007183D01*
X023683Y007282D02*
X023543Y007282D01*
X023543Y007380D02*
X023683Y007380D01*
X023683Y007479D02*
X023543Y007479D01*
X023543Y007577D02*
X023683Y007577D01*
X023736Y007676D02*
X023491Y007676D01*
X023392Y007774D02*
X023834Y007774D01*
X023933Y007873D02*
X023294Y007873D01*
X023291Y008015D02*
X023543Y008267D01*
X023663Y008267D01*
X023663Y008365D02*
X023543Y008365D01*
X023543Y008267D02*
X023543Y008623D01*
X023291Y008875D01*
X022935Y008875D01*
X022683Y008623D01*
X022683Y008267D01*
X022935Y008015D01*
X023291Y008015D01*
X023346Y008070D02*
X023852Y008070D01*
X023754Y008168D02*
X023445Y008168D01*
X023543Y008464D02*
X024063Y008464D01*
X024063Y008562D02*
X024163Y008562D01*
X024163Y008661D02*
X024063Y008661D01*
X024063Y008759D02*
X024163Y008759D01*
X024163Y008858D02*
X024063Y008858D01*
X023890Y008858D02*
X023309Y008858D01*
X023407Y008759D02*
X023791Y008759D01*
X023693Y008661D02*
X023506Y008661D01*
X023543Y008562D02*
X023663Y008562D01*
X024063Y008365D02*
X024163Y008365D01*
X024163Y008267D02*
X024063Y008267D01*
X024063Y008168D02*
X024163Y008168D01*
X024163Y008070D02*
X024063Y008070D01*
X024294Y007873D02*
X024541Y007873D01*
X024541Y007971D02*
X019303Y007971D01*
X019316Y007984D02*
X019362Y008047D01*
X019398Y008118D01*
X019422Y008192D01*
X019433Y008259D01*
X018984Y008259D01*
X018984Y007811D01*
X019051Y007822D01*
X019126Y007846D01*
X019196Y007882D01*
X019260Y007928D01*
X019316Y007984D01*
X019373Y008070D02*
X022881Y008070D01*
X022782Y008168D02*
X019414Y008168D01*
X019433Y008359D02*
X018984Y008359D01*
X018984Y008259D01*
X018884Y008259D01*
X018884Y007811D01*
X018817Y007822D01*
X018742Y007846D01*
X018672Y007882D01*
X018609Y007928D01*
X018553Y007984D01*
X018507Y008047D01*
X018471Y008118D01*
X018447Y008192D01*
X018436Y008259D01*
X018884Y008259D01*
X018884Y008359D01*
X018436Y008359D01*
X018447Y008427D01*
X018471Y008501D01*
X018507Y008572D01*
X018553Y008635D01*
X018609Y008691D01*
X018672Y008737D01*
X018742Y008773D01*
X018817Y008797D01*
X018884Y008808D01*
X018884Y008359D01*
X018984Y008359D01*
X018984Y008808D01*
X019051Y008797D01*
X019126Y008773D01*
X019196Y008737D01*
X019260Y008691D01*
X019316Y008635D01*
X019362Y008572D01*
X019398Y008501D01*
X019422Y008427D01*
X019433Y008359D01*
X019432Y008365D02*
X022683Y008365D01*
X022684Y008267D02*
X018984Y008267D01*
X018984Y008365D02*
X018884Y008365D01*
X018884Y008267D02*
X011237Y008267D01*
X011268Y008168D02*
X018454Y008168D01*
X018495Y008070D02*
X011268Y008070D01*
X011268Y007971D02*
X018565Y007971D01*
X018690Y007873D02*
X011268Y007873D01*
X011234Y007774D02*
X018812Y007774D01*
X018884Y007873D02*
X018984Y007873D01*
X018984Y007971D02*
X018884Y007971D01*
X018884Y008070D02*
X018984Y008070D01*
X018984Y008168D02*
X018884Y008168D01*
X018884Y008464D02*
X018984Y008464D01*
X018984Y008562D02*
X018884Y008562D01*
X018884Y008661D02*
X018984Y008661D01*
X018984Y008759D02*
X018884Y008759D01*
X018888Y008811D02*
X018888Y009259D01*
X018988Y009259D01*
X018988Y008811D01*
X019055Y008822D01*
X019130Y008846D01*
X019200Y008882D01*
X019264Y008928D01*
X019320Y008984D01*
X019366Y009047D01*
X019402Y009118D01*
X019426Y009192D01*
X019437Y009259D01*
X018988Y009259D01*
X018988Y009359D01*
X019437Y009359D01*
X019426Y009427D01*
X019402Y009501D01*
X019366Y009572D01*
X019320Y009635D01*
X019264Y009691D01*
X019200Y009737D01*
X019130Y009773D01*
X019055Y009797D01*
X018988Y009808D01*
X018988Y009359D01*
X018888Y009359D01*
X018888Y009259D01*
X018440Y009259D01*
X018451Y009192D01*
X018475Y009118D01*
X018511Y009047D01*
X018557Y008984D01*
X018612Y008928D01*
X018676Y008882D01*
X018746Y008846D01*
X018821Y008822D01*
X018888Y008811D01*
X018888Y008858D02*
X018988Y008858D01*
X018988Y008956D02*
X018888Y008956D01*
X018888Y009055D02*
X018988Y009055D01*
X018988Y009153D02*
X018888Y009153D01*
X018888Y009252D02*
X018988Y009252D01*
X018988Y009350D02*
X022683Y009350D01*
X022683Y009267D02*
X022935Y009015D01*
X023291Y009015D01*
X023543Y009267D01*
X023543Y009623D01*
X023291Y009875D01*
X022935Y009875D01*
X022683Y009623D01*
X022683Y009267D01*
X022699Y009252D02*
X019435Y009252D01*
X019413Y009153D02*
X022797Y009153D01*
X022896Y009055D02*
X019370Y009055D01*
X019292Y008956D02*
X024541Y008956D01*
X024541Y008858D02*
X024337Y008858D01*
X024436Y008759D02*
X024541Y008759D01*
X024534Y008661D02*
X024541Y008661D01*
X024541Y009055D02*
X024331Y009055D01*
X024430Y009153D02*
X024541Y009153D01*
X024528Y009252D02*
X024541Y009252D01*
X024521Y009646D02*
X024541Y009646D01*
X024541Y009744D02*
X024422Y009744D01*
X024324Y009843D02*
X024541Y009843D01*
X024541Y009941D02*
X019249Y009941D01*
X019210Y009903D02*
X019345Y010038D01*
X019418Y010214D01*
X019418Y010405D01*
X019345Y010581D01*
X019210Y010716D01*
X019034Y010789D01*
X018843Y010789D01*
X018666Y010716D01*
X018531Y010581D01*
X018493Y010489D01*
X017554Y010489D01*
X017540Y010491D01*
X017515Y010501D01*
X017504Y010510D01*
X014837Y013177D01*
X014837Y013245D01*
X014796Y013344D01*
X014721Y013419D01*
X014622Y013460D01*
X014515Y013460D01*
X014416Y013419D01*
X014340Y013344D01*
X014299Y013245D01*
X014299Y013138D01*
X014340Y013039D01*
X014416Y012963D01*
X014515Y012922D01*
X014583Y012922D01*
X017302Y010203D01*
X017302Y010203D01*
X017310Y010195D01*
X017310Y010195D01*
X017468Y010129D01*
X018493Y010129D01*
X018531Y010038D01*
X018666Y009903D01*
X018843Y009829D01*
X019034Y009829D01*
X019210Y009903D01*
X019066Y009843D02*
X022903Y009843D01*
X022804Y009744D02*
X019186Y009744D01*
X019309Y009646D02*
X022706Y009646D01*
X022683Y009547D02*
X019378Y009547D01*
X019419Y009449D02*
X022683Y009449D01*
X022927Y009995D02*
X022663Y010259D01*
X022663Y010395D01*
X023063Y010395D01*
X023063Y010495D01*
X022663Y010495D01*
X022663Y010632D01*
X022927Y010895D01*
X023063Y010895D01*
X023063Y010495D01*
X023163Y010495D01*
X023163Y010895D01*
X023300Y010895D01*
X023563Y010632D01*
X023563Y010495D01*
X023163Y010495D01*
X023163Y010395D01*
X023163Y009995D01*
X023300Y009995D01*
X023563Y010259D01*
X023563Y010395D01*
X023163Y010395D01*
X023063Y010395D01*
X023063Y009995D01*
X022927Y009995D01*
X022882Y010040D02*
X019346Y010040D01*
X019387Y010138D02*
X022784Y010138D01*
X022685Y010237D02*
X019418Y010237D01*
X019418Y010335D02*
X022663Y010335D01*
X022663Y010532D02*
X019365Y010532D01*
X019406Y010434D02*
X023063Y010434D01*
X023063Y010532D02*
X023163Y010532D01*
X023163Y010434D02*
X023683Y010434D01*
X023683Y010532D02*
X023563Y010532D01*
X023563Y010631D02*
X023691Y010631D01*
X023789Y010729D02*
X023466Y010729D01*
X023367Y010828D02*
X023888Y010828D01*
X023926Y011025D02*
X023301Y011025D01*
X023291Y011015D02*
X023543Y011267D01*
X023543Y011623D01*
X023291Y011875D01*
X022935Y011875D01*
X022683Y011623D01*
X022683Y011267D01*
X022935Y011015D01*
X023291Y011015D01*
X023400Y011123D02*
X023827Y011123D01*
X023729Y011222D02*
X023498Y011222D01*
X023543Y011320D02*
X023683Y011320D01*
X023683Y011419D02*
X023543Y011419D01*
X023543Y011517D02*
X023683Y011517D01*
X023683Y011616D02*
X023543Y011616D01*
X023452Y011714D02*
X023774Y011714D01*
X023873Y011813D02*
X023354Y011813D01*
X023291Y012015D02*
X022935Y012015D01*
X022683Y012267D01*
X022683Y012623D01*
X022935Y012875D01*
X023291Y012875D01*
X023543Y012623D01*
X023543Y012267D01*
X023291Y012015D01*
X023385Y012108D02*
X023842Y012108D01*
X023744Y012207D02*
X023483Y012207D01*
X023543Y012305D02*
X023683Y012305D01*
X023683Y012404D02*
X023543Y012404D01*
X023543Y012502D02*
X023683Y012502D01*
X023683Y012601D02*
X023543Y012601D01*
X023467Y012699D02*
X023759Y012699D01*
X023858Y012798D02*
X023369Y012798D01*
X023291Y013015D02*
X022935Y013015D01*
X022683Y013267D01*
X022683Y013623D01*
X022935Y013875D01*
X023291Y013875D01*
X023543Y013623D01*
X023543Y013267D01*
X023291Y013015D01*
X023370Y013093D02*
X023829Y013093D01*
X023730Y013192D02*
X023468Y013192D01*
X023543Y013290D02*
X023663Y013290D01*
X023663Y013389D02*
X023543Y013389D01*
X023543Y013487D02*
X024063Y013487D01*
X024063Y013389D02*
X024163Y013389D01*
X024163Y013290D02*
X024063Y013290D01*
X024063Y013192D02*
X024163Y013192D01*
X024163Y013093D02*
X024063Y013093D01*
X024398Y013093D02*
X024541Y013093D01*
X024541Y012995D02*
X019316Y012995D01*
X019355Y013034D02*
X019428Y013210D01*
X019428Y013401D01*
X019355Y013577D01*
X019220Y013712D01*
X019044Y013786D01*
X018853Y013786D01*
X018676Y013712D01*
X018541Y013577D01*
X018468Y013401D01*
X018468Y013210D01*
X018541Y013034D01*
X018676Y012899D01*
X018853Y012826D01*
X019044Y012826D01*
X019220Y012899D01*
X019355Y013034D01*
X019380Y013093D02*
X022857Y013093D01*
X022759Y013192D02*
X019420Y013192D01*
X019428Y013290D02*
X022683Y013290D01*
X022683Y013389D02*
X019428Y013389D01*
X019392Y013487D02*
X022683Y013487D01*
X022683Y013586D02*
X019347Y013586D01*
X019248Y013684D02*
X022744Y013684D01*
X022843Y013783D02*
X019050Y013783D01*
X019044Y013826D02*
X019220Y013899D01*
X019355Y014034D01*
X019380Y014094D01*
X022857Y014094D01*
X022935Y014015D01*
X023291Y014015D01*
X023543Y014267D01*
X023543Y014623D01*
X023291Y014875D01*
X022935Y014875D01*
X022683Y014623D01*
X022683Y014454D01*
X019406Y014454D01*
X019355Y014577D01*
X019220Y014712D01*
X019044Y014786D01*
X018853Y014786D01*
X018676Y014712D01*
X018541Y014577D01*
X018490Y014454D01*
X010359Y014454D01*
X010301Y014512D01*
X010202Y014553D01*
X010095Y014553D01*
X009996Y014512D01*
X009921Y014436D01*
X009880Y014337D01*
X009880Y014230D01*
X009921Y014131D01*
X009996Y014056D01*
X010095Y014015D01*
X010202Y014015D01*
X010301Y014056D01*
X010339Y014094D01*
X018516Y014094D01*
X018541Y014034D01*
X018676Y013899D01*
X018853Y013826D01*
X019044Y013826D01*
X019178Y013881D02*
X023913Y013881D01*
X023815Y013783D02*
X023384Y013783D01*
X023482Y013684D02*
X023716Y013684D01*
X023663Y013586D02*
X023543Y013586D01*
X024063Y013586D02*
X024163Y013586D01*
X024163Y013684D02*
X024063Y013684D01*
X024063Y013783D02*
X024163Y013783D01*
X024163Y013881D02*
X024063Y013881D01*
X024314Y013881D02*
X024541Y013881D01*
X024541Y013783D02*
X024412Y013783D01*
X024511Y013684D02*
X024541Y013684D01*
X024541Y013980D02*
X019301Y013980D01*
X019373Y014078D02*
X022872Y014078D01*
X022942Y014274D02*
X023113Y014445D01*
X022942Y014274D02*
X010159Y014274D01*
X010149Y014284D01*
X010341Y014472D02*
X018498Y014472D01*
X018538Y014571D02*
X003394Y014571D01*
X003394Y014669D02*
X004873Y014669D01*
X004737Y014768D02*
X003394Y014768D01*
X003394Y014866D02*
X004694Y014866D01*
X004693Y014965D02*
X003394Y014965D01*
X003394Y015063D02*
X004728Y015063D01*
X004775Y015162D02*
X003394Y015162D01*
X003394Y015260D02*
X004775Y015260D01*
X004775Y015359D02*
X003394Y015359D01*
X003394Y015457D02*
X004775Y015457D01*
X004775Y015556D02*
X003394Y015556D01*
X003394Y015654D02*
X004775Y015654D01*
X004786Y015753D02*
X003394Y015753D01*
X003394Y015851D02*
X004795Y015851D01*
X004826Y015950D02*
X003394Y015950D01*
X003394Y016048D02*
X004866Y016048D01*
X004906Y016147D02*
X003394Y016147D01*
X003394Y016245D02*
X004946Y016245D01*
X004994Y016344D02*
X003394Y016344D01*
X003394Y016442D02*
X005074Y016442D01*
X005154Y016541D02*
X003394Y016541D01*
X003394Y016639D02*
X005234Y016639D01*
X005343Y016738D02*
X003394Y016738D01*
X003394Y016836D02*
X005489Y016836D01*
X005635Y016935D02*
X003394Y016935D01*
X003394Y017033D02*
X005910Y017033D01*
X005899Y016639D02*
X013185Y016639D01*
X013086Y016541D02*
X005719Y016541D01*
X005573Y016442D02*
X012988Y016442D01*
X012889Y016344D02*
X005475Y016344D01*
X005395Y016245D02*
X012791Y016245D01*
X012904Y016104D02*
X017615Y020815D01*
X017732Y020678D02*
X018655Y020678D01*
X018557Y020579D02*
X017634Y020579D01*
X017535Y020481D02*
X018507Y020481D01*
X018468Y020382D02*
X017437Y020382D01*
X017338Y020284D02*
X018468Y020284D01*
X018473Y020185D02*
X017240Y020185D01*
X017141Y020087D02*
X018513Y020087D01*
X018573Y019988D02*
X017043Y019988D01*
X016944Y019890D02*
X018671Y019890D01*
X018676Y019699D02*
X018541Y019564D01*
X018468Y019387D01*
X018468Y019196D01*
X018541Y019020D01*
X018676Y018885D01*
X018853Y018812D01*
X019044Y018812D01*
X019220Y018885D01*
X019355Y019020D01*
X019428Y019196D01*
X019428Y019387D01*
X019355Y019564D01*
X019220Y019699D01*
X019044Y019772D01*
X018853Y019772D01*
X018676Y019699D01*
X018670Y019693D02*
X016747Y019693D01*
X016649Y019594D02*
X018572Y019594D01*
X018513Y019496D02*
X016550Y019496D01*
X016452Y019397D02*
X018472Y019397D01*
X018468Y019299D02*
X016353Y019299D01*
X016255Y019200D02*
X018468Y019200D01*
X018507Y019102D02*
X016156Y019102D01*
X016058Y019003D02*
X018558Y019003D01*
X018656Y018905D02*
X015959Y018905D01*
X015861Y018806D02*
X022838Y018806D01*
X022927Y018895D02*
X022663Y018632D01*
X022663Y018495D01*
X023063Y018495D01*
X023063Y018395D01*
X022663Y018395D01*
X022663Y018259D01*
X022927Y017995D01*
X023063Y017995D01*
X023063Y018395D01*
X023163Y018395D01*
X023163Y017995D01*
X023300Y017995D01*
X023563Y018259D01*
X023563Y018395D01*
X023163Y018395D01*
X023163Y018495D01*
X023063Y018495D01*
X023063Y018895D01*
X022927Y018895D01*
X023063Y018806D02*
X023163Y018806D01*
X023163Y018895D02*
X023163Y018495D01*
X023563Y018495D01*
X023563Y018632D01*
X023300Y018895D01*
X023163Y018895D01*
X023163Y018708D02*
X023063Y018708D01*
X023063Y018609D02*
X023163Y018609D01*
X023163Y018511D02*
X023063Y018511D01*
X023063Y018412D02*
X019418Y018412D01*
X019428Y018387D02*
X019355Y018564D01*
X019220Y018699D01*
X019044Y018772D01*
X018853Y018772D01*
X018676Y018699D01*
X018541Y018564D01*
X018468Y018387D01*
X018468Y018196D01*
X018541Y018020D01*
X018676Y017885D01*
X018853Y017812D01*
X019044Y017812D01*
X019220Y017885D01*
X019355Y018020D01*
X019428Y018196D01*
X019428Y018387D01*
X019428Y018314D02*
X022663Y018314D01*
X022707Y018215D02*
X019428Y018215D01*
X019395Y018117D02*
X022805Y018117D01*
X022904Y018018D02*
X019353Y018018D01*
X019255Y017920D02*
X024541Y017920D01*
X024541Y018018D02*
X024295Y018018D01*
X024393Y018117D02*
X024541Y018117D01*
X024541Y018215D02*
X024492Y018215D01*
X024541Y017821D02*
X024345Y017821D01*
X024444Y017723D02*
X024541Y017723D01*
X024541Y017230D02*
X024507Y017230D01*
X024541Y017132D02*
X024408Y017132D01*
X024310Y017033D02*
X024541Y017033D01*
X024541Y016935D02*
X019270Y016935D01*
X019220Y016885D02*
X019355Y017020D01*
X019428Y017196D01*
X019428Y017387D01*
X019355Y017564D01*
X019220Y017699D01*
X019044Y017772D01*
X018853Y017772D01*
X018676Y017699D01*
X018541Y017564D01*
X018468Y017387D01*
X018468Y017196D01*
X018541Y017020D01*
X018676Y016885D01*
X018853Y016812D01*
X019044Y016812D01*
X019220Y016885D01*
X019103Y016836D02*
X022896Y016836D01*
X022935Y016875D02*
X022683Y016623D01*
X022683Y016267D01*
X022935Y016015D01*
X023291Y016015D01*
X023543Y016267D01*
X023543Y016623D01*
X023291Y016875D01*
X022935Y016875D01*
X022935Y017015D02*
X023291Y017015D01*
X023543Y017267D01*
X023543Y017623D01*
X023291Y017875D01*
X022935Y017875D01*
X022683Y017623D01*
X022683Y017267D01*
X022935Y017015D01*
X022917Y017033D02*
X019361Y017033D01*
X019401Y017132D02*
X022819Y017132D01*
X022720Y017230D02*
X019428Y017230D01*
X019428Y017329D02*
X022683Y017329D01*
X022683Y017427D02*
X019411Y017427D01*
X019371Y017526D02*
X022683Y017526D01*
X022684Y017624D02*
X019294Y017624D01*
X019161Y017723D02*
X022783Y017723D01*
X022881Y017821D02*
X019067Y017821D01*
X018829Y017821D02*
X014876Y017821D01*
X014777Y017723D02*
X018735Y017723D01*
X018602Y017624D02*
X014679Y017624D01*
X014580Y017526D02*
X018525Y017526D01*
X018485Y017427D02*
X014482Y017427D01*
X014383Y017329D02*
X018468Y017329D01*
X018468Y017230D02*
X014285Y017230D01*
X014186Y017132D02*
X018495Y017132D01*
X018536Y017033D02*
X014088Y017033D01*
X013989Y016935D02*
X018626Y016935D01*
X018793Y016836D02*
X013891Y016836D01*
X013792Y016738D02*
X018738Y016738D01*
X018676Y016712D02*
X018541Y016577D01*
X018468Y016401D01*
X018468Y016210D01*
X018541Y016034D01*
X018676Y015899D01*
X018853Y015826D01*
X019044Y015826D01*
X019220Y015899D01*
X019355Y016034D01*
X019428Y016210D01*
X019428Y016401D01*
X019355Y016577D01*
X019220Y016712D01*
X019044Y016786D01*
X018853Y016786D01*
X018676Y016712D01*
X018603Y016639D02*
X013694Y016639D01*
X013595Y016541D02*
X018526Y016541D01*
X018485Y016442D02*
X013497Y016442D01*
X013398Y016344D02*
X018468Y016344D01*
X018468Y016245D02*
X013300Y016245D01*
X013201Y016147D02*
X018494Y016147D01*
X018535Y016048D02*
X013103Y016048D01*
X013004Y015950D02*
X018625Y015950D01*
X018790Y015851D02*
X012865Y015851D01*
X012550Y015957D02*
X005769Y015957D01*
X005960Y016147D02*
X012621Y016147D01*
X012550Y015957D02*
X012594Y015959D01*
X012637Y015965D01*
X012679Y015974D01*
X012721Y015987D01*
X012761Y016004D01*
X012800Y016024D01*
X012837Y016047D01*
X012871Y016074D01*
X012904Y016103D01*
X013283Y016738D02*
X006321Y016738D01*
X006373Y016922D02*
X013007Y016922D01*
X013112Y017132D02*
X003394Y017132D01*
X003394Y017230D02*
X013225Y017230D01*
X013323Y017329D02*
X003394Y017329D01*
X003394Y017427D02*
X004824Y017427D01*
X004829Y017422D02*
X004928Y017381D01*
X005035Y017381D01*
X005134Y017422D01*
X005182Y017470D01*
X013339Y017470D01*
X013498Y017535D01*
X013558Y017596D01*
X013611Y017649D01*
X018110Y022148D01*
X018110Y022148D01*
X018163Y022201D01*
X018195Y022227D01*
X018272Y022259D01*
X018314Y022263D01*
X018499Y022263D01*
X018537Y022171D01*
X018672Y022036D01*
X018849Y021963D01*
X019040Y021963D01*
X019216Y022036D01*
X019351Y022171D01*
X019424Y022348D01*
X019424Y022539D01*
X019351Y022715D01*
X019216Y022850D01*
X019040Y022923D01*
X018849Y022923D01*
X018672Y022850D01*
X018537Y022715D01*
X018499Y022623D01*
X018200Y022623D01*
X017989Y022536D01*
X017989Y022536D01*
X017961Y022508D01*
X017961Y022508D01*
X017916Y022463D01*
X017908Y022455D01*
X017855Y022403D01*
X017855Y022403D01*
X013356Y017903D01*
X013303Y017851D01*
X013293Y017842D01*
X013268Y017831D01*
X013254Y017830D01*
X005182Y017830D01*
X005134Y017878D01*
X005035Y017919D01*
X004928Y017919D01*
X004829Y017878D01*
X004753Y017802D01*
X004712Y017704D01*
X004712Y017596D01*
X004753Y017498D01*
X004829Y017422D01*
X004742Y017526D02*
X003394Y017526D01*
X003394Y017624D02*
X004712Y017624D01*
X004720Y017723D02*
X003394Y017723D01*
X003394Y017821D02*
X004772Y017821D01*
X004981Y017650D02*
X013254Y017650D01*
X013431Y017723D02*
X018035Y022328D01*
X017908Y022455D02*
X017908Y022455D01*
X017904Y022451D02*
X003394Y022451D01*
X003394Y022549D02*
X018021Y022549D01*
X017805Y022352D02*
X003394Y022352D01*
X003394Y022254D02*
X017707Y022254D01*
X017608Y022155D02*
X003394Y022155D01*
X003394Y022057D02*
X017510Y022057D01*
X017411Y021958D02*
X003394Y021958D01*
X003750Y021860D02*
X003850Y021860D01*
X003850Y021761D02*
X003750Y021761D01*
X003750Y021663D02*
X003850Y021663D01*
X003850Y021564D02*
X003750Y021564D01*
X003850Y021466D02*
X016919Y021466D01*
X017017Y021564D02*
X004750Y021564D01*
X004750Y021663D02*
X017116Y021663D01*
X017214Y021761D02*
X004750Y021761D01*
X004739Y021860D02*
X017313Y021860D01*
X017526Y021564D02*
X017626Y021564D01*
X017625Y021663D02*
X018503Y021663D01*
X018568Y021761D02*
X017723Y021761D01*
X017822Y021860D02*
X018671Y021860D01*
X018652Y022057D02*
X018019Y022057D01*
X018117Y022155D02*
X018553Y022155D01*
X018503Y022254D02*
X018259Y022254D01*
X018314Y022443D02*
X018944Y022443D01*
X019385Y022254D02*
X022683Y022254D01*
X022683Y022352D02*
X019424Y022352D01*
X019424Y022451D02*
X022683Y022451D01*
X022683Y022549D02*
X019420Y022549D01*
X019379Y022648D02*
X022683Y022648D01*
X022683Y022746D02*
X019320Y022746D01*
X019221Y022845D02*
X022729Y022845D01*
X022760Y022875D02*
X022683Y022799D01*
X022683Y022091D01*
X022760Y022015D01*
X023467Y022015D01*
X023543Y022091D01*
X023543Y022799D01*
X023467Y022875D01*
X022760Y022875D01*
X023043Y023239D02*
X004893Y023239D01*
X005047Y023337D02*
X010810Y023337D01*
X010572Y023436D02*
X005164Y023436D01*
X005281Y023534D02*
X010453Y023534D01*
X010355Y023633D02*
X005345Y023633D01*
X005402Y023731D02*
X010282Y023731D01*
X010241Y023830D02*
X005459Y023830D01*
X005516Y023928D02*
X010200Y023928D01*
X010171Y024027D02*
X005533Y024027D01*
X005551Y024125D02*
X010171Y024125D01*
X010171Y024224D02*
X005568Y024224D01*
X005585Y024322D02*
X010171Y024322D01*
X010171Y024421D02*
X005582Y024421D01*
X005565Y024519D02*
X010171Y024519D01*
X010171Y024618D02*
X005548Y024618D01*
X005530Y024716D02*
X010171Y024716D01*
X010171Y024815D02*
X005506Y024815D01*
X005449Y024913D02*
X010171Y024913D01*
X010171Y025012D02*
X005392Y025012D01*
X005335Y025110D02*
X010171Y025110D01*
X010171Y025209D02*
X005260Y025209D01*
X003597Y023337D02*
X003394Y023337D01*
X003394Y023239D02*
X003751Y023239D01*
X004022Y023140D02*
X003394Y023140D01*
X003394Y023042D02*
X024541Y023042D01*
X024541Y023140D02*
X023914Y023140D01*
X024184Y023239D02*
X024541Y023239D01*
X024541Y023337D02*
X024338Y023337D01*
X024455Y023436D02*
X024541Y023436D01*
X024541Y022943D02*
X003394Y022943D01*
X003394Y022845D02*
X018667Y022845D01*
X018568Y022746D02*
X003394Y022746D01*
X003394Y022648D02*
X018509Y022648D01*
X018314Y022444D02*
X018275Y022442D01*
X018237Y022436D01*
X018200Y022427D01*
X018163Y022414D01*
X018128Y022397D01*
X018095Y022378D01*
X018064Y022355D01*
X018035Y022329D01*
X017920Y021958D02*
X024541Y021958D01*
X024541Y021860D02*
X024307Y021860D01*
X024405Y021761D02*
X024541Y021761D01*
X024541Y021663D02*
X024504Y021663D01*
X024541Y021265D02*
X024541Y020654D01*
X024300Y020895D01*
X024163Y020895D01*
X024163Y020495D01*
X024063Y020495D01*
X024063Y020395D01*
X023663Y020395D01*
X023663Y020259D01*
X023927Y019995D01*
X024063Y019995D01*
X024063Y020395D01*
X024163Y020395D01*
X024163Y019995D01*
X024300Y019995D01*
X024541Y020237D01*
X024541Y019625D01*
X024291Y019875D01*
X023938Y019875D01*
X023869Y019945D01*
X023840Y019973D01*
X023763Y020050D01*
X023755Y020058D01*
X023597Y020123D01*
X023400Y020123D01*
X023543Y020267D01*
X023543Y020623D01*
X023409Y020757D01*
X023587Y020757D01*
X023746Y020823D01*
X023753Y020831D01*
X023753Y020831D01*
X023938Y021015D01*
X024291Y021015D01*
X024541Y021265D01*
X024541Y021170D02*
X024447Y021170D01*
X024541Y021072D02*
X024348Y021072D01*
X024320Y020875D02*
X024541Y020875D01*
X024541Y020973D02*
X023896Y020973D01*
X023927Y020895D02*
X023663Y020632D01*
X023663Y020495D01*
X024063Y020495D01*
X024063Y020895D01*
X023927Y020895D01*
X023907Y020875D02*
X023798Y020875D01*
X023746Y020823D02*
X023746Y020823D01*
X023808Y020776D02*
X023633Y020776D01*
X023710Y020678D02*
X023489Y020678D01*
X023543Y020579D02*
X023663Y020579D01*
X023543Y020481D02*
X024063Y020481D01*
X024063Y020579D02*
X024163Y020579D01*
X024163Y020678D02*
X024063Y020678D01*
X024063Y020776D02*
X024163Y020776D01*
X024163Y020875D02*
X024063Y020875D01*
X024419Y020776D02*
X024541Y020776D01*
X024541Y020678D02*
X024517Y020678D01*
X024163Y020382D02*
X024063Y020382D01*
X024063Y020284D02*
X024163Y020284D01*
X024163Y020185D02*
X024063Y020185D01*
X024063Y020087D02*
X024163Y020087D01*
X024391Y020087D02*
X024541Y020087D01*
X024541Y020185D02*
X024490Y020185D01*
X024541Y019988D02*
X023825Y019988D01*
X023755Y020058D02*
X023755Y020058D01*
X023685Y020087D02*
X023835Y020087D01*
X023737Y020185D02*
X023462Y020185D01*
X023543Y020284D02*
X023663Y020284D01*
X023663Y020382D02*
X023543Y020382D01*
X023512Y019943D02*
X022483Y019943D01*
X022251Y019791D02*
X016846Y019791D01*
X016632Y020087D02*
X016590Y020087D01*
X016534Y019988D02*
X016492Y019988D01*
X016435Y019890D02*
X016393Y019890D01*
X016337Y019791D02*
X016295Y019791D01*
X016238Y019693D02*
X016196Y019693D01*
X016140Y019594D02*
X016098Y019594D01*
X016041Y019496D02*
X015999Y019496D01*
X015943Y019397D02*
X015901Y019397D01*
X015844Y019299D02*
X015802Y019299D01*
X015746Y019200D02*
X015704Y019200D01*
X015647Y019102D02*
X015605Y019102D01*
X015549Y019003D02*
X015507Y019003D01*
X015450Y018905D02*
X015408Y018905D01*
X015352Y018806D02*
X015310Y018806D01*
X015253Y018708D02*
X015211Y018708D01*
X015155Y018609D02*
X015113Y018609D01*
X015056Y018511D02*
X015014Y018511D01*
X014958Y018412D02*
X014916Y018412D01*
X014859Y018314D02*
X014817Y018314D01*
X014761Y018215D02*
X014719Y018215D01*
X014662Y018117D02*
X014620Y018117D01*
X014564Y018018D02*
X014522Y018018D01*
X014465Y017920D02*
X014423Y017920D01*
X014367Y017821D02*
X014325Y017821D01*
X014268Y017723D02*
X014226Y017723D01*
X014170Y017624D02*
X014128Y017624D01*
X014071Y017526D02*
X014029Y017526D01*
X013973Y017427D02*
X013931Y017427D01*
X013874Y017329D02*
X013832Y017329D01*
X013776Y017230D02*
X013734Y017230D01*
X013677Y017132D02*
X013635Y017132D01*
X013579Y017033D02*
X013537Y017033D01*
X013480Y016935D02*
X013438Y016935D01*
X013382Y016836D02*
X013340Y016836D01*
X013286Y017037D02*
X017557Y021308D01*
X017674Y021170D02*
X018534Y021170D01*
X018633Y021072D02*
X017575Y021072D01*
X017519Y020973D02*
X017477Y020973D01*
X017420Y020875D02*
X017378Y020875D01*
X017322Y020776D02*
X017280Y020776D01*
X017223Y020678D02*
X017181Y020678D01*
X017125Y020579D02*
X017083Y020579D01*
X017026Y020481D02*
X016984Y020481D01*
X016928Y020382D02*
X016886Y020382D01*
X016829Y020284D02*
X016787Y020284D01*
X016731Y020185D02*
X016689Y020185D01*
X016377Y020382D02*
X016344Y020382D01*
X016278Y020284D02*
X016246Y020284D01*
X016180Y020185D02*
X016147Y020185D01*
X016081Y020087D02*
X016049Y020087D01*
X015983Y019988D02*
X015950Y019988D01*
X015884Y019890D02*
X015852Y019890D01*
X015786Y019791D02*
X015753Y019791D01*
X015687Y019693D02*
X015655Y019693D01*
X015589Y019594D02*
X015556Y019594D01*
X015490Y019496D02*
X015458Y019496D01*
X015392Y019397D02*
X015359Y019397D01*
X015293Y019299D02*
X015261Y019299D01*
X015195Y019200D02*
X015162Y019200D01*
X015096Y019102D02*
X015064Y019102D01*
X014998Y019003D02*
X014965Y019003D01*
X014899Y018905D02*
X014867Y018905D01*
X014801Y018806D02*
X014768Y018806D01*
X014702Y018708D02*
X014670Y018708D01*
X014604Y018609D02*
X014571Y018609D01*
X014505Y018511D02*
X014473Y018511D01*
X014407Y018412D02*
X014374Y018412D01*
X014308Y018314D02*
X014276Y018314D01*
X014210Y018215D02*
X014177Y018215D01*
X014111Y018117D02*
X014079Y018117D01*
X014013Y018018D02*
X013980Y018018D01*
X013914Y017920D02*
X013882Y017920D01*
X013816Y017821D02*
X013783Y017821D01*
X013717Y017723D02*
X013685Y017723D01*
X013611Y017649D02*
X013611Y017649D01*
X013619Y017624D02*
X013586Y017624D01*
X013558Y017596D02*
X013558Y017596D01*
X013520Y017526D02*
X013474Y017526D01*
X013498Y017535D02*
X013498Y017535D01*
X013422Y017427D02*
X005139Y017427D01*
X005316Y016147D02*
X005578Y016147D01*
X005515Y016048D02*
X005269Y016048D01*
X005229Y015950D02*
X005500Y015950D01*
X005521Y015851D02*
X005189Y015851D01*
X005158Y015753D02*
X005593Y015753D01*
X005945Y015753D02*
X018774Y015753D01*
X018853Y015786D02*
X018676Y015712D01*
X018541Y015577D01*
X018468Y015401D01*
X018468Y015210D01*
X018541Y015034D01*
X018676Y014899D01*
X018853Y014826D01*
X019044Y014826D01*
X019220Y014899D01*
X019355Y015034D01*
X019428Y015210D01*
X019428Y015401D01*
X019355Y015577D01*
X019220Y015712D01*
X019044Y015786D01*
X018853Y015786D01*
X019106Y015851D02*
X022911Y015851D01*
X022935Y015875D02*
X022683Y015623D01*
X022683Y015267D01*
X022935Y015015D01*
X023291Y015015D01*
X023543Y015267D01*
X023543Y015623D01*
X023291Y015875D01*
X022935Y015875D01*
X022813Y015753D02*
X019122Y015753D01*
X019278Y015654D02*
X022714Y015654D01*
X022683Y015556D02*
X019364Y015556D01*
X019405Y015457D02*
X022683Y015457D01*
X022683Y015359D02*
X019428Y015359D01*
X019428Y015260D02*
X022690Y015260D01*
X022789Y015162D02*
X019408Y015162D01*
X019367Y015063D02*
X022887Y015063D01*
X022926Y014866D02*
X019142Y014866D01*
X019086Y014768D02*
X022828Y014768D01*
X022729Y014669D02*
X019263Y014669D01*
X019358Y014571D02*
X022683Y014571D01*
X022683Y014472D02*
X019398Y014472D01*
X019286Y014965D02*
X024541Y014965D01*
X024541Y015063D02*
X024340Y015063D01*
X024438Y015162D02*
X024541Y015162D01*
X024537Y015260D02*
X024541Y015260D01*
X024541Y014866D02*
X024300Y014866D01*
X024399Y014768D02*
X024541Y014768D01*
X024541Y014669D02*
X024497Y014669D01*
X024453Y014177D02*
X024541Y014177D01*
X024541Y014078D02*
X024355Y014078D01*
X023872Y014078D02*
X023355Y014078D01*
X023453Y014177D02*
X023774Y014177D01*
X023683Y014275D02*
X023543Y014275D01*
X023543Y014374D02*
X023683Y014374D01*
X023683Y014472D02*
X023543Y014472D01*
X023543Y014571D02*
X023683Y014571D01*
X023729Y014669D02*
X023497Y014669D01*
X023399Y014768D02*
X023828Y014768D01*
X023926Y014866D02*
X023300Y014866D01*
X023340Y015063D02*
X023887Y015063D01*
X023789Y015162D02*
X023438Y015162D01*
X023537Y015260D02*
X023690Y015260D01*
X023683Y015359D02*
X023543Y015359D01*
X023543Y015457D02*
X023683Y015457D01*
X023683Y015556D02*
X023543Y015556D01*
X023512Y015654D02*
X023714Y015654D01*
X023813Y015753D02*
X023414Y015753D01*
X023315Y015851D02*
X023911Y015851D01*
X023874Y016048D02*
X023325Y016048D01*
X023423Y016147D02*
X023775Y016147D01*
X023677Y016245D02*
X023522Y016245D01*
X023543Y016344D02*
X023663Y016344D01*
X023543Y016442D02*
X024063Y016442D01*
X024063Y016344D02*
X024163Y016344D01*
X024163Y016245D02*
X024063Y016245D01*
X024063Y016147D02*
X024163Y016147D01*
X024163Y016048D02*
X024063Y016048D01*
X024353Y016048D02*
X024541Y016048D01*
X024541Y015950D02*
X019271Y015950D01*
X019361Y016048D02*
X022902Y016048D01*
X022804Y016147D02*
X019402Y016147D01*
X019428Y016245D02*
X022705Y016245D01*
X022683Y016344D02*
X019428Y016344D01*
X019411Y016442D02*
X022683Y016442D01*
X022683Y016541D02*
X019370Y016541D01*
X019293Y016639D02*
X022699Y016639D01*
X022798Y016738D02*
X019159Y016738D01*
X018618Y015654D02*
X005142Y015654D01*
X005135Y015556D02*
X018532Y015556D01*
X018491Y015457D02*
X005135Y015457D01*
X005135Y015359D02*
X018468Y015359D01*
X018468Y015260D02*
X005135Y015260D01*
X005135Y015162D02*
X018488Y015162D01*
X018529Y015063D02*
X005195Y015063D01*
X005231Y014965D02*
X018610Y014965D01*
X018754Y014866D02*
X005229Y014866D01*
X005187Y014768D02*
X018810Y014768D01*
X018633Y014669D02*
X005051Y014669D01*
X004955Y014966D02*
X004955Y015624D01*
X004955Y014966D02*
X004962Y014924D01*
X004956Y015624D02*
X004964Y015697D01*
X004976Y015768D01*
X004991Y015839D01*
X005011Y015910D01*
X005033Y015979D01*
X005060Y016047D01*
X005089Y016113D01*
X005122Y016178D01*
X005159Y016241D01*
X005198Y016302D01*
X005241Y016361D01*
X005286Y016418D01*
X005335Y016472D01*
X005386Y016524D01*
X005439Y016573D01*
X005495Y016619D01*
X005554Y016663D01*
X005614Y016703D01*
X005677Y016740D01*
X005741Y016774D01*
X005807Y016805D01*
X005875Y016832D01*
X005943Y016856D01*
X006013Y016876D01*
X006084Y016892D01*
X006156Y016905D01*
X006228Y016915D01*
X006300Y016920D01*
X006373Y016922D01*
X004714Y019102D02*
X014555Y019102D01*
X014653Y019200D02*
X004750Y019200D01*
X004750Y019299D02*
X014752Y019299D01*
X014850Y019397D02*
X004750Y019397D01*
X004750Y019594D02*
X015047Y019594D01*
X014949Y019496D02*
X003850Y019496D01*
X003850Y019594D02*
X003750Y019594D01*
X003750Y019693D02*
X003850Y019693D01*
X003850Y019791D02*
X003750Y019791D01*
X003750Y019890D02*
X003850Y019890D01*
X003934Y020079D02*
X004091Y020144D01*
X004210Y020263D01*
X004275Y020420D01*
X004275Y020589D01*
X004210Y020745D01*
X004091Y020865D01*
X003934Y020930D01*
X003765Y020930D01*
X003609Y020865D01*
X003489Y020745D01*
X003424Y020589D01*
X003424Y020420D01*
X003489Y020263D01*
X003609Y020144D01*
X003765Y020079D01*
X003934Y020079D01*
X003953Y020087D02*
X015540Y020087D01*
X015638Y020185D02*
X004132Y020185D01*
X004219Y020284D02*
X015737Y020284D01*
X015835Y020382D02*
X004259Y020382D01*
X004275Y020481D02*
X015934Y020481D01*
X016032Y020579D02*
X004275Y020579D01*
X004238Y020678D02*
X016131Y020678D01*
X016229Y020776D02*
X004179Y020776D01*
X004066Y020875D02*
X016328Y020875D01*
X016426Y020973D02*
X003394Y020973D01*
X003394Y020875D02*
X003633Y020875D01*
X003520Y020776D02*
X003394Y020776D01*
X003394Y020678D02*
X003461Y020678D01*
X003424Y020579D02*
X003394Y020579D01*
X003394Y020481D02*
X003424Y020481D01*
X003440Y020382D02*
X003394Y020382D01*
X003394Y020284D02*
X003481Y020284D01*
X003394Y020185D02*
X003567Y020185D01*
X003394Y020087D02*
X003746Y020087D01*
X003394Y019988D02*
X015441Y019988D01*
X015343Y019890D02*
X004722Y019890D01*
X004750Y019791D02*
X015244Y019791D01*
X015146Y019693D02*
X004750Y019693D01*
X003850Y019397D02*
X003750Y019397D01*
X003750Y019299D02*
X003850Y019299D01*
X003850Y019200D02*
X003750Y019200D01*
X003750Y019102D02*
X003850Y019102D01*
X003394Y019003D02*
X014456Y019003D01*
X014358Y018905D02*
X003394Y018905D01*
X003394Y018806D02*
X014259Y018806D01*
X014161Y018708D02*
X003394Y018708D01*
X003394Y018609D02*
X014062Y018609D01*
X013964Y018511D02*
X003394Y018511D01*
X003394Y018412D02*
X013865Y018412D01*
X013767Y018314D02*
X003394Y018314D01*
X003394Y018215D02*
X013668Y018215D01*
X013570Y018117D02*
X003394Y018117D01*
X003394Y018018D02*
X013471Y018018D01*
X013373Y017920D02*
X003394Y017920D01*
X003750Y021072D02*
X003850Y021072D01*
X003850Y021170D02*
X003750Y021170D01*
X003750Y021269D02*
X003850Y021269D01*
X003850Y021367D02*
X003750Y021367D01*
X004678Y021072D02*
X016525Y021072D01*
X016623Y021170D02*
X004748Y021170D01*
X004750Y021269D02*
X016722Y021269D01*
X016820Y021367D02*
X004750Y021367D01*
X004622Y023140D02*
X023313Y023140D01*
X023498Y022845D02*
X023905Y022845D01*
X023806Y022746D02*
X023543Y022746D01*
X023543Y022648D02*
X023708Y022648D01*
X023683Y022549D02*
X023543Y022549D01*
X023543Y022451D02*
X023683Y022451D01*
X023683Y022352D02*
X023543Y022352D01*
X023543Y022254D02*
X023697Y022254D01*
X023795Y022155D02*
X023543Y022155D01*
X023509Y022057D02*
X023894Y022057D01*
X023920Y021860D02*
X023307Y021860D01*
X023405Y021761D02*
X023821Y021761D01*
X023723Y021663D02*
X023504Y021663D01*
X023543Y021564D02*
X023683Y021564D01*
X023683Y021466D02*
X023543Y021466D01*
X023543Y021367D02*
X023683Y021367D01*
X023682Y021269D02*
X023543Y021269D01*
X023679Y021010D02*
X023658Y020992D01*
X023635Y020975D01*
X023610Y020962D01*
X023585Y020951D01*
X023558Y020943D01*
X023530Y020939D01*
X023502Y020937D01*
X022728Y020937D01*
X022678Y020888D01*
X017792Y020888D01*
X017556Y021309D02*
X017584Y021334D01*
X017614Y021356D01*
X017646Y021376D01*
X017680Y021392D01*
X017715Y021405D01*
X017751Y021415D01*
X017788Y021421D01*
X017826Y021424D01*
X017826Y021423D02*
X018934Y021449D01*
X019379Y021269D02*
X022683Y021269D01*
X022683Y021367D02*
X019414Y021367D01*
X019414Y021466D02*
X022683Y021466D01*
X022683Y021564D02*
X019406Y021564D01*
X019365Y021663D02*
X022723Y021663D01*
X022821Y021761D02*
X019301Y021761D01*
X019197Y021860D02*
X022920Y021860D01*
X022718Y022057D02*
X019236Y022057D01*
X019335Y022155D02*
X022683Y022155D01*
X022780Y021170D02*
X019334Y021170D01*
X019236Y021072D02*
X022607Y021072D01*
X021927Y020175D02*
X021964Y020139D01*
X022004Y020107D01*
X022046Y020077D01*
X022089Y020049D01*
X022135Y020025D01*
X022182Y020004D01*
X022230Y019986D01*
X022279Y019971D01*
X022329Y019959D01*
X022380Y019951D01*
X022432Y019946D01*
X022483Y019944D01*
X022223Y020185D02*
X022765Y020185D01*
X022683Y020284D02*
X022073Y020284D01*
X021972Y020382D02*
X022683Y020382D01*
X022683Y020481D02*
X021943Y020481D01*
X021901Y020579D02*
X022683Y020579D01*
X022738Y020678D02*
X021768Y020678D01*
X021580Y020678D02*
X019241Y020678D01*
X019339Y020579D02*
X021448Y020579D01*
X021406Y020481D02*
X019389Y020481D01*
X019428Y020382D02*
X021405Y020382D01*
X021442Y020284D02*
X019428Y020284D01*
X019424Y020185D02*
X021551Y020185D01*
X021759Y020087D02*
X019383Y020087D01*
X019323Y019988D02*
X021857Y019988D01*
X022004Y019890D02*
X019225Y019890D01*
X019226Y019693D02*
X022753Y019693D01*
X022683Y019594D02*
X019324Y019594D01*
X019383Y019496D02*
X022683Y019496D01*
X022683Y019397D02*
X019424Y019397D01*
X019428Y019299D02*
X022683Y019299D01*
X022750Y019200D02*
X019428Y019200D01*
X019389Y019102D02*
X022849Y019102D01*
X022740Y018708D02*
X019198Y018708D01*
X019309Y018609D02*
X022663Y018609D01*
X022663Y018511D02*
X019377Y018511D01*
X019240Y018905D02*
X024541Y018905D01*
X024541Y019003D02*
X019338Y019003D01*
X018698Y018708D02*
X015762Y018708D01*
X015664Y018609D02*
X018587Y018609D01*
X018519Y018511D02*
X015565Y018511D01*
X015467Y018412D02*
X018478Y018412D01*
X018468Y018314D02*
X015368Y018314D01*
X015270Y018215D02*
X018468Y018215D01*
X018501Y018117D02*
X015171Y018117D01*
X015073Y018018D02*
X018543Y018018D01*
X018641Y017920D02*
X014974Y017920D01*
X013356Y017903D02*
X013356Y017903D01*
X013431Y017723D02*
X013410Y017705D01*
X013387Y017688D01*
X013362Y017675D01*
X013337Y017664D01*
X013310Y017656D01*
X013282Y017652D01*
X013254Y017650D01*
X013286Y017036D02*
X013257Y017010D01*
X013226Y016987D01*
X013193Y016968D01*
X013158Y016951D01*
X013121Y016938D01*
X013084Y016929D01*
X013046Y016923D01*
X013007Y016921D01*
X010324Y014078D02*
X018523Y014078D01*
X018595Y013980D02*
X003394Y013980D01*
X003394Y014078D02*
X009974Y014078D01*
X009902Y014177D02*
X003394Y014177D01*
X003394Y014275D02*
X009880Y014275D01*
X009895Y014374D02*
X003394Y014374D01*
X003394Y014472D02*
X009957Y014472D01*
X014318Y013290D02*
X003394Y013290D01*
X003394Y013192D02*
X014299Y013192D01*
X014317Y013093D02*
X003394Y013093D01*
X003394Y012995D02*
X014384Y012995D01*
X014609Y012896D02*
X003394Y012896D01*
X003394Y012798D02*
X014707Y012798D01*
X014806Y012699D02*
X003394Y012699D01*
X003394Y012601D02*
X014904Y012601D01*
X015003Y012502D02*
X003394Y012502D01*
X003394Y012404D02*
X015101Y012404D01*
X015200Y012305D02*
X003394Y012305D01*
X003394Y012207D02*
X015298Y012207D01*
X015397Y012108D02*
X003394Y012108D01*
X003394Y012010D02*
X015495Y012010D01*
X015594Y011911D02*
X003394Y011911D01*
X003394Y011813D02*
X015692Y011813D01*
X015791Y011714D02*
X003394Y011714D01*
X003394Y011616D02*
X015889Y011616D01*
X015988Y011517D02*
X003394Y011517D01*
X003394Y011419D02*
X016086Y011419D01*
X016185Y011320D02*
X003394Y011320D01*
X003394Y011222D02*
X016283Y011222D01*
X016382Y011123D02*
X003394Y011123D01*
X003394Y011025D02*
X016480Y011025D01*
X016579Y010926D02*
X003394Y010926D01*
X003394Y010828D02*
X016677Y010828D01*
X016776Y010729D02*
X003394Y010729D01*
X003394Y010631D02*
X016874Y010631D01*
X016973Y010532D02*
X003394Y010532D01*
X003394Y010434D02*
X017071Y010434D01*
X017170Y010335D02*
X003394Y010335D01*
X003394Y010237D02*
X017268Y010237D01*
X017310Y010195D02*
X017310Y010195D01*
X017447Y010138D02*
X003394Y010138D01*
X003394Y010040D02*
X018530Y010040D01*
X018627Y009941D02*
X003394Y009941D01*
X003394Y009843D02*
X018810Y009843D01*
X018821Y009797D02*
X018746Y009773D01*
X018676Y009737D01*
X018612Y009691D01*
X018557Y009635D01*
X018511Y009572D01*
X018475Y009501D01*
X018451Y009427D01*
X018440Y009359D01*
X018888Y009359D01*
X018888Y009808D01*
X018821Y009797D01*
X018888Y009744D02*
X018988Y009744D01*
X018988Y009646D02*
X018888Y009646D01*
X018888Y009547D02*
X018988Y009547D01*
X018988Y009449D02*
X018888Y009449D01*
X018888Y009350D02*
X003394Y009350D01*
X003394Y009252D02*
X018441Y009252D01*
X018463Y009153D02*
X003394Y009153D01*
X003394Y009055D02*
X018507Y009055D01*
X018584Y008956D02*
X003394Y008956D01*
X003394Y009449D02*
X018458Y009449D01*
X018498Y009547D02*
X003394Y009547D01*
X003394Y009646D02*
X018567Y009646D01*
X018690Y009744D02*
X003394Y009744D01*
X003394Y006986D02*
X018575Y006986D01*
X018506Y007085D02*
X016490Y007085D01*
X018437Y008365D02*
X011196Y008365D01*
X011155Y008464D02*
X018459Y008464D01*
X018502Y008562D02*
X011079Y008562D01*
X010981Y008661D02*
X018579Y008661D01*
X018716Y008759D02*
X010854Y008759D01*
X010616Y008858D02*
X018723Y008858D01*
X019153Y008858D02*
X022918Y008858D01*
X022819Y008759D02*
X019153Y008759D01*
X019290Y008661D02*
X022721Y008661D01*
X022683Y008562D02*
X019367Y008562D01*
X019410Y008464D02*
X022683Y008464D01*
X022933Y007873D02*
X019179Y007873D01*
X019057Y007774D02*
X022834Y007774D01*
X023331Y009055D02*
X023896Y009055D01*
X023797Y009153D02*
X023430Y009153D01*
X023528Y009252D02*
X023699Y009252D01*
X023683Y009350D02*
X023543Y009350D01*
X023543Y009449D02*
X023683Y009449D01*
X023683Y009547D02*
X023543Y009547D01*
X023521Y009646D02*
X023706Y009646D01*
X023804Y009744D02*
X023422Y009744D01*
X023324Y009843D02*
X023903Y009843D01*
X023911Y010040D02*
X023344Y010040D01*
X023443Y010138D02*
X023812Y010138D01*
X023714Y010237D02*
X023541Y010237D01*
X023563Y010335D02*
X023683Y010335D01*
X023163Y010335D02*
X023063Y010335D01*
X023063Y010237D02*
X023163Y010237D01*
X023163Y010138D02*
X023063Y010138D01*
X023063Y010040D02*
X023163Y010040D01*
X023163Y010631D02*
X023063Y010631D01*
X023063Y010729D02*
X023163Y010729D01*
X023163Y010828D02*
X023063Y010828D01*
X022860Y010828D02*
X017186Y010828D01*
X017088Y010926D02*
X018642Y010926D01*
X018666Y010903D02*
X018531Y011038D01*
X018458Y011214D01*
X018458Y011405D01*
X018531Y011581D01*
X018666Y011716D01*
X018843Y011789D01*
X019034Y011789D01*
X019210Y011716D01*
X019345Y011581D01*
X019418Y011405D01*
X019418Y011214D01*
X019345Y011038D01*
X019210Y010903D01*
X019034Y010829D01*
X018843Y010829D01*
X018666Y010903D01*
X018544Y011025D02*
X016989Y011025D01*
X016891Y011123D02*
X018496Y011123D01*
X018458Y011222D02*
X016792Y011222D01*
X016694Y011320D02*
X018458Y011320D01*
X018464Y011419D02*
X016595Y011419D01*
X016497Y011517D02*
X018505Y011517D01*
X018566Y011616D02*
X016398Y011616D01*
X016300Y011714D02*
X018664Y011714D01*
X018666Y011903D02*
X018843Y011829D01*
X019034Y011829D01*
X019210Y011903D01*
X019345Y012038D01*
X019418Y012214D01*
X019418Y012405D01*
X019345Y012581D01*
X019210Y012716D01*
X019034Y012789D01*
X018843Y012789D01*
X018666Y012716D01*
X018531Y012581D01*
X018458Y012405D01*
X018458Y012214D01*
X018531Y012038D01*
X018666Y011903D01*
X018657Y011911D02*
X016103Y011911D01*
X016201Y011813D02*
X022873Y011813D01*
X022774Y011714D02*
X019212Y011714D01*
X019311Y011616D02*
X022683Y011616D01*
X022683Y011517D02*
X019372Y011517D01*
X019412Y011419D02*
X022683Y011419D01*
X022683Y011320D02*
X019418Y011320D01*
X019418Y011222D02*
X022729Y011222D01*
X022827Y011123D02*
X019381Y011123D01*
X019332Y011025D02*
X022926Y011025D01*
X022761Y010729D02*
X019179Y010729D01*
X019296Y010631D02*
X022663Y010631D01*
X022842Y012108D02*
X019374Y012108D01*
X019415Y012207D02*
X022744Y012207D01*
X022683Y012305D02*
X019418Y012305D01*
X019418Y012404D02*
X022683Y012404D01*
X022683Y012502D02*
X019378Y012502D01*
X019326Y012601D02*
X022683Y012601D01*
X022759Y012699D02*
X019227Y012699D01*
X019215Y012896D02*
X024541Y012896D01*
X024541Y012798D02*
X024369Y012798D01*
X024467Y012699D02*
X024541Y012699D01*
X024541Y013192D02*
X024496Y013192D01*
X024483Y012207D02*
X024541Y012207D01*
X024541Y012108D02*
X024385Y012108D01*
X024541Y012010D02*
X019317Y012010D01*
X019219Y011911D02*
X024541Y011911D01*
X024541Y011813D02*
X024354Y011813D01*
X024452Y011714D02*
X024541Y011714D01*
X024541Y011222D02*
X024498Y011222D01*
X024541Y011123D02*
X024400Y011123D01*
X024301Y011025D02*
X024541Y011025D01*
X024541Y010926D02*
X019234Y010926D01*
X018698Y010729D02*
X017285Y010729D01*
X017383Y010631D02*
X018581Y010631D01*
X018511Y010532D02*
X017482Y010532D01*
X017377Y010382D02*
X017398Y010364D01*
X017421Y010347D01*
X017446Y010334D01*
X017471Y010323D01*
X017498Y010315D01*
X017526Y010311D01*
X017554Y010309D01*
X018938Y010309D01*
X017377Y010383D02*
X014568Y013191D01*
X014837Y013192D02*
X018476Y013192D01*
X018468Y013290D02*
X014818Y013290D01*
X014751Y013389D02*
X018468Y013389D01*
X018504Y013487D02*
X003394Y013487D01*
X003394Y013389D02*
X014385Y013389D01*
X014921Y013093D02*
X018516Y013093D01*
X018580Y012995D02*
X015019Y012995D01*
X015118Y012896D02*
X018682Y012896D01*
X018649Y012699D02*
X015315Y012699D01*
X015413Y012601D02*
X018551Y012601D01*
X018499Y012502D02*
X015512Y012502D01*
X015610Y012404D02*
X018458Y012404D01*
X018458Y012305D02*
X015709Y012305D01*
X015807Y012207D02*
X018461Y012207D01*
X018502Y012108D02*
X015906Y012108D01*
X016004Y012010D02*
X018559Y012010D01*
X018550Y013586D02*
X003394Y013586D01*
X003394Y013684D02*
X018648Y013684D01*
X018718Y013881D02*
X003394Y013881D01*
X003394Y013783D02*
X018846Y013783D01*
X015216Y012798D02*
X022858Y012798D01*
X024339Y010828D02*
X024541Y010828D01*
X024541Y010729D02*
X024437Y010729D01*
X024536Y010631D02*
X024541Y010631D01*
X024513Y010237D02*
X024541Y010237D01*
X024541Y010138D02*
X024415Y010138D01*
X024316Y010040D02*
X024541Y010040D01*
X024541Y008168D02*
X024473Y008168D01*
X024541Y008070D02*
X024374Y008070D01*
X024392Y007774D02*
X024541Y007774D01*
X024541Y007676D02*
X024491Y007676D01*
X024460Y007183D02*
X024541Y007183D01*
X024541Y007085D02*
X024361Y007085D01*
X024163Y006592D02*
X024063Y006592D01*
X022879Y004819D02*
X003394Y004819D01*
X003394Y004721D02*
X022781Y004721D01*
X022683Y004622D02*
X003394Y004622D01*
X003394Y004524D02*
X022683Y004524D01*
X022683Y004425D02*
X003394Y004425D01*
X003394Y004327D02*
X022683Y004327D01*
X022722Y004228D02*
X003394Y004228D01*
X003394Y004130D02*
X022821Y004130D01*
X022679Y003243D02*
X003394Y003243D01*
X003394Y003145D02*
X022777Y003145D01*
X022876Y003046D02*
X003394Y003046D01*
X004620Y002751D02*
X023315Y002751D01*
X023044Y002652D02*
X004891Y002652D01*
X005046Y002554D02*
X022889Y002554D01*
X022772Y002455D02*
X005163Y002455D01*
X005281Y002357D02*
X022655Y002357D01*
X022590Y002258D02*
X005345Y002258D01*
X005402Y002160D02*
X022533Y002160D01*
X022477Y002061D02*
X005459Y002061D01*
X005516Y001963D02*
X022420Y001963D01*
X022402Y001864D02*
X005533Y001864D01*
X005551Y001766D02*
X022385Y001766D01*
X022367Y001667D02*
X005568Y001667D01*
X005585Y001569D02*
X022350Y001569D01*
X022353Y001470D02*
X005582Y001470D01*
X005565Y001372D02*
X022370Y001372D01*
X022388Y001273D02*
X005548Y001273D01*
X005530Y001175D02*
X022405Y001175D01*
X022429Y001076D02*
X005506Y001076D01*
X005449Y000978D02*
X022486Y000978D01*
X022543Y000879D02*
X005392Y000879D01*
X005335Y000781D02*
X022600Y000781D01*
X022675Y000682D02*
X005261Y000682D01*
X003394Y006888D02*
X018688Y006888D01*
X019341Y007577D02*
X019206Y007712D01*
X023063Y003243D02*
X023163Y003243D01*
X023163Y003145D02*
X023063Y003145D01*
X023063Y003046D02*
X023163Y003046D01*
X024182Y002652D02*
X024541Y002652D01*
X024541Y002554D02*
X024337Y002554D01*
X024455Y002455D02*
X024541Y002455D01*
X024512Y015654D02*
X024541Y015654D01*
X024541Y015753D02*
X024414Y015753D01*
X024315Y015851D02*
X024541Y015851D01*
X024541Y016147D02*
X024451Y016147D01*
X024163Y016541D02*
X024063Y016541D01*
X024063Y016639D02*
X024163Y016639D01*
X024163Y016738D02*
X024063Y016738D01*
X024063Y016836D02*
X024163Y016836D01*
X024359Y016836D02*
X024541Y016836D01*
X024541Y016738D02*
X024457Y016738D01*
X023917Y017033D02*
X023310Y017033D01*
X023408Y017132D02*
X023819Y017132D01*
X023720Y017230D02*
X023507Y017230D01*
X023543Y017329D02*
X023683Y017329D01*
X023683Y017427D02*
X023543Y017427D01*
X023543Y017526D02*
X023683Y017526D01*
X023684Y017624D02*
X023542Y017624D01*
X023444Y017723D02*
X023783Y017723D01*
X023881Y017821D02*
X023345Y017821D01*
X023323Y018018D02*
X023932Y018018D01*
X023834Y018117D02*
X023421Y018117D01*
X023520Y018215D02*
X023735Y018215D01*
X023683Y018314D02*
X023563Y018314D01*
X023683Y018412D02*
X023163Y018412D01*
X023163Y018314D02*
X023063Y018314D01*
X023063Y018215D02*
X023163Y018215D01*
X023163Y018117D02*
X023063Y018117D01*
X023063Y018018D02*
X023163Y018018D01*
X023563Y018511D02*
X023683Y018511D01*
X023683Y018609D02*
X023563Y018609D01*
X023487Y018708D02*
X023768Y018708D01*
X023866Y018806D02*
X023389Y018806D01*
X023378Y019102D02*
X023849Y019102D01*
X023750Y019200D02*
X023477Y019200D01*
X023543Y019299D02*
X023683Y019299D01*
X023683Y019397D02*
X023543Y019397D01*
X023543Y019496D02*
X023683Y019496D01*
X023683Y019594D02*
X023543Y019594D01*
X023689Y019870D02*
X023668Y019888D01*
X023645Y019905D01*
X023620Y019918D01*
X023595Y019929D01*
X023568Y019937D01*
X023540Y019941D01*
X023512Y019943D01*
X023689Y019870D02*
X024113Y019445D01*
X024375Y019791D02*
X024541Y019791D01*
X024541Y019693D02*
X024474Y019693D01*
X024541Y019890D02*
X023923Y019890D01*
X023611Y019693D02*
X023474Y019693D01*
X024378Y019102D02*
X024541Y019102D01*
X024541Y019200D02*
X024477Y019200D01*
X024541Y018806D02*
X024360Y018806D01*
X024459Y018708D02*
X024541Y018708D01*
X023868Y016836D02*
X023330Y016836D01*
X023429Y016738D02*
X023770Y016738D01*
X023671Y016639D02*
X023527Y016639D01*
X023543Y016541D02*
X023663Y016541D01*
X021926Y020174D02*
X021674Y020426D01*
X023447Y021170D02*
X023584Y021170D01*
X023679Y021011D02*
X024113Y021445D01*
X024333Y022057D02*
X024541Y022057D01*
X024541Y022155D02*
X024432Y022155D01*
X024530Y022254D02*
X024541Y022254D01*
X024519Y022648D02*
X024541Y022648D01*
X024541Y022746D02*
X024420Y022746D01*
X024322Y022845D02*
X024541Y022845D01*
X022889Y023337D02*
X017125Y023337D01*
X017363Y023436D02*
X022771Y023436D01*
X022654Y023534D02*
X017482Y023534D01*
X017581Y023633D02*
X022590Y023633D01*
X022533Y023731D02*
X017654Y023731D01*
X017695Y023830D02*
X022476Y023830D01*
X022419Y023928D02*
X017735Y023928D01*
X017764Y024027D02*
X022402Y024027D01*
X022385Y024125D02*
X017764Y024125D01*
X017764Y024224D02*
X022367Y024224D01*
X022350Y024322D02*
X017764Y024322D01*
X017764Y024421D02*
X022353Y024421D01*
X022371Y024519D02*
X017764Y024519D01*
X017764Y024618D02*
X022388Y024618D01*
X022405Y024716D02*
X017764Y024716D01*
X017764Y024815D02*
X022430Y024815D01*
X022487Y024913D02*
X017764Y024913D01*
X017764Y025012D02*
X022544Y025012D01*
X022600Y025110D02*
X017764Y025110D01*
X017764Y025209D02*
X022675Y025209D01*
X017792Y020888D02*
X017764Y020886D01*
X017736Y020882D01*
X017709Y020874D01*
X017684Y020863D01*
X017659Y020850D01*
X017636Y020833D01*
X017615Y020815D01*
X017165Y021170D02*
X017132Y021170D01*
X017066Y021072D02*
X017034Y021072D01*
X016968Y020973D02*
X016935Y020973D01*
X016869Y020875D02*
X016837Y020875D01*
X016771Y020776D02*
X016738Y020776D01*
X016672Y020678D02*
X016640Y020678D01*
X016574Y020579D02*
X016541Y020579D01*
X016475Y020481D02*
X016443Y020481D01*
X017231Y021269D02*
X017263Y021269D01*
X017329Y021367D02*
X017362Y021367D01*
X017428Y021466D02*
X017460Y021466D01*
X003480Y023436D02*
X003394Y023436D01*
D15*
X005159Y021036D03*
X005651Y021036D03*
X006123Y021036D03*
X006615Y021036D03*
X007107Y021036D03*
X007619Y021036D03*
X008111Y021036D03*
X008584Y021036D03*
X009066Y021036D03*
X009558Y021036D03*
X010060Y021046D03*
X010513Y021036D03*
X010798Y020681D03*
X010798Y020248D03*
X010503Y019924D03*
X010060Y019924D03*
X009568Y019933D03*
X009017Y019933D03*
X008564Y019933D03*
X008131Y019933D03*
X007639Y019933D03*
X007127Y019933D03*
X006635Y019933D03*
X006143Y019933D03*
X005670Y019933D03*
X005178Y019933D03*
X004981Y017650D03*
X005769Y015957D03*
X004962Y014924D03*
X010149Y014284D03*
X014568Y013191D03*
X016330Y007306D03*
X021674Y020426D03*
D16*
X003850Y020504D03*
M02*
