G75*
%MOIN*%
%OFA0B0*%
%FSLAX24Y24*%
%IPPOS*%
%LPD*%
%AMOC8*
5,1,8,0,0,1.08239X$1,22.5*
%
%ADD10C,0.0160*%
%ADD11C,0.0120*%
%ADD12C,0.0060*%
%ADD13C,0.0080*%
%ADD14C,0.0000*%
%ADD15C,0.0030*%
%ADD16R,0.0118X0.0059*%
%ADD17R,0.0118X0.0118*%
%ADD18C,0.0040*%
%ADD19C,0.0059*%
%ADD20C,0.0050*%
%ADD21C,0.0256*%
D10*
X009302Y012453D02*
X009873Y012453D01*
X009302Y012473D02*
X009302Y013024D01*
X014735Y012453D02*
X015306Y012453D01*
X015306Y013004D01*
X015346Y019914D02*
X015346Y020465D01*
X014775Y020465D01*
X009873Y020485D02*
X009302Y020485D01*
X009302Y019933D01*
D11*
X010058Y018693D02*
X010060Y018738D01*
X010066Y018782D01*
X010076Y018825D01*
X010089Y018868D01*
X010107Y018909D01*
X010127Y018948D01*
X010152Y018986D01*
X010179Y019021D01*
X010210Y019053D01*
X010243Y019083D01*
X010279Y019110D01*
X010316Y019133D01*
X010356Y019153D01*
X010398Y019170D01*
X010441Y019182D01*
X010484Y019191D01*
X010529Y019196D01*
X010573Y019197D01*
X010618Y019194D01*
X010662Y019187D01*
X010705Y019176D01*
X010747Y019162D01*
X010788Y019144D01*
X010827Y019122D01*
X010864Y019097D01*
X010898Y019069D01*
X010930Y019037D01*
X010959Y019003D01*
X010985Y018967D01*
X011007Y018929D01*
X011027Y018888D01*
X011042Y018847D01*
X011054Y018804D01*
X011062Y018760D01*
X011066Y018715D01*
X011066Y018671D01*
X011062Y018626D01*
X011054Y018582D01*
X011042Y018539D01*
X011027Y018498D01*
X011007Y018457D01*
X010985Y018419D01*
X010959Y018383D01*
X010930Y018349D01*
X010898Y018317D01*
X010864Y018289D01*
X010827Y018264D01*
X010788Y018242D01*
X010747Y018224D01*
X010705Y018210D01*
X010662Y018199D01*
X010618Y018192D01*
X010573Y018189D01*
X010529Y018190D01*
X010484Y018195D01*
X010441Y018204D01*
X010398Y018216D01*
X010356Y018233D01*
X010316Y018253D01*
X010279Y018276D01*
X010243Y018303D01*
X010210Y018333D01*
X010179Y018365D01*
X010152Y018400D01*
X010127Y018438D01*
X010107Y018477D01*
X010089Y018518D01*
X010076Y018561D01*
X010066Y018604D01*
X010060Y018648D01*
X010058Y018693D01*
D12*
X019429Y018319D02*
X019486Y018376D01*
X019600Y018376D01*
X019656Y018319D01*
X019656Y018263D01*
X019429Y018263D01*
X019429Y018319D02*
X019429Y018206D01*
X019486Y018149D01*
X019600Y018149D01*
X019798Y018149D02*
X020025Y018376D01*
X020025Y018433D01*
X019968Y018490D01*
X019855Y018490D01*
X019798Y018433D01*
X019798Y018149D02*
X020025Y018149D01*
X020166Y018206D02*
X020393Y018433D01*
X020393Y018206D01*
X020336Y018149D01*
X020223Y018149D01*
X020166Y018206D01*
X020166Y018433D01*
X020223Y018490D01*
X020336Y018490D01*
X020393Y018433D01*
X020393Y019143D02*
X020166Y019143D01*
X020280Y019143D02*
X020280Y019484D01*
X020166Y019370D01*
X020025Y019370D02*
X020025Y019427D01*
X019968Y019484D01*
X019855Y019484D01*
X019798Y019427D01*
X019656Y019314D02*
X019656Y019257D01*
X019429Y019257D01*
X019429Y019314D02*
X019486Y019370D01*
X019600Y019370D01*
X019656Y019314D01*
X019600Y019143D02*
X019486Y019143D01*
X019429Y019200D01*
X019429Y019314D01*
X019798Y019143D02*
X020025Y019370D01*
X020025Y019143D02*
X019798Y019143D01*
X019808Y020137D02*
X020035Y020364D01*
X020035Y020421D01*
X019978Y020478D01*
X019864Y020478D01*
X019808Y020421D01*
X019666Y020308D02*
X019666Y020251D01*
X019439Y020251D01*
X019439Y020308D02*
X019496Y020364D01*
X019609Y020364D01*
X019666Y020308D01*
X019609Y020137D02*
X019496Y020137D01*
X019439Y020194D01*
X019439Y020308D01*
X019808Y020137D02*
X020035Y020137D01*
X020176Y020137D02*
X020403Y020364D01*
X020403Y020421D01*
X020346Y020478D01*
X020233Y020478D01*
X020176Y020421D01*
X020176Y020137D02*
X020403Y020137D01*
X022613Y020195D02*
X022613Y020695D01*
X022863Y020945D01*
X022613Y021195D01*
X022613Y021695D01*
X022863Y021945D01*
X022613Y022195D01*
X022613Y022695D01*
X022863Y022945D01*
X024363Y022945D01*
X024613Y022695D01*
X024613Y022195D01*
X024363Y021945D01*
X024613Y021695D01*
X024613Y021195D01*
X024363Y020945D01*
X024613Y020695D01*
X024613Y020195D01*
X024363Y019945D01*
X024613Y019695D01*
X024613Y019195D01*
X024363Y018945D01*
X024613Y018695D01*
X024613Y018195D01*
X024363Y017945D01*
X024613Y017695D01*
X024613Y017195D01*
X024363Y016945D01*
X024613Y016695D01*
X024613Y016195D01*
X024363Y015945D01*
X024613Y015695D01*
X024613Y015195D01*
X024363Y014945D01*
X024613Y014695D01*
X024613Y014195D01*
X024363Y013945D01*
X024613Y013695D01*
X024613Y013195D01*
X024363Y012945D01*
X024613Y012695D01*
X024613Y012195D01*
X024363Y011945D01*
X024613Y011695D01*
X024613Y011195D01*
X024363Y010945D01*
X024613Y010695D01*
X024613Y010195D01*
X024363Y009945D01*
X024613Y009695D01*
X024613Y009195D01*
X024363Y008945D01*
X024613Y008695D01*
X024613Y008195D01*
X024363Y007945D01*
X024613Y007695D01*
X024613Y007195D01*
X024363Y006945D01*
X024613Y006695D01*
X024613Y006195D01*
X024363Y005945D01*
X024613Y005695D01*
X024613Y005195D01*
X024363Y004945D01*
X024613Y004695D01*
X024613Y004195D01*
X024363Y003945D01*
X024613Y003695D01*
X024613Y003195D01*
X024363Y002945D01*
X022863Y002945D01*
X022613Y003195D01*
X022613Y003695D01*
X022863Y003945D01*
X022613Y004195D01*
X022613Y004695D01*
X022863Y004945D01*
X022613Y005195D01*
X022613Y005695D01*
X022863Y005945D01*
X022613Y006195D01*
X022613Y006695D01*
X022863Y006945D01*
X022613Y007195D01*
X022613Y007695D01*
X022863Y007945D01*
X022613Y008195D01*
X022613Y008695D01*
X022863Y008945D01*
X022613Y009195D01*
X022613Y009695D01*
X022863Y009945D01*
X022613Y010195D01*
X022613Y010695D01*
X022863Y010945D01*
X022613Y011195D01*
X022613Y011695D01*
X022863Y011945D01*
X022613Y012195D01*
X022613Y012695D01*
X022863Y012945D01*
X022613Y013195D01*
X022613Y013695D01*
X022863Y013945D01*
X022613Y014195D01*
X022613Y014695D01*
X022863Y014945D01*
X022613Y015195D01*
X022613Y015695D01*
X022863Y015945D01*
X022613Y016195D01*
X022613Y016695D01*
X022863Y016945D01*
X022613Y017195D01*
X022613Y017695D01*
X022863Y017945D01*
X022613Y018195D01*
X022613Y018695D01*
X022863Y018945D01*
X022613Y019195D01*
X022613Y019695D01*
X022863Y019945D01*
X022613Y020195D01*
X020336Y017476D02*
X020223Y017476D01*
X020166Y017419D01*
X020166Y017362D01*
X020223Y017306D01*
X020393Y017306D01*
X020393Y017419D02*
X020393Y017192D01*
X020336Y017136D01*
X020223Y017136D01*
X020166Y017192D01*
X020025Y017136D02*
X019798Y017136D01*
X019911Y017136D02*
X019911Y017476D01*
X019798Y017362D01*
X019656Y017306D02*
X019656Y017249D01*
X019429Y017249D01*
X019429Y017306D02*
X019486Y017362D01*
X019600Y017362D01*
X019656Y017306D01*
X019600Y017136D02*
X019486Y017136D01*
X019429Y017192D01*
X019429Y017306D01*
X019486Y016358D02*
X019600Y016358D01*
X019656Y016302D01*
X019656Y016245D01*
X019429Y016245D01*
X019429Y016188D02*
X019429Y016302D01*
X019486Y016358D01*
X019429Y016188D02*
X019486Y016132D01*
X019600Y016132D01*
X019798Y016132D02*
X020025Y016132D01*
X019911Y016132D02*
X019911Y016472D01*
X019798Y016358D01*
X020166Y016358D02*
X020223Y016302D01*
X020336Y016302D01*
X020393Y016245D01*
X020393Y016188D01*
X020336Y016132D01*
X020223Y016132D01*
X020166Y016188D01*
X020166Y016245D01*
X020223Y016302D01*
X020166Y016358D02*
X020166Y016415D01*
X020223Y016472D01*
X020336Y016472D01*
X020393Y016415D01*
X020393Y016358D01*
X020336Y016302D01*
X020393Y015478D02*
X020166Y015478D01*
X020393Y015478D02*
X020393Y015421D01*
X020166Y015194D01*
X020166Y015137D01*
X020025Y015137D02*
X019798Y015137D01*
X019911Y015137D02*
X019911Y015478D01*
X019798Y015364D01*
X019656Y015308D02*
X019656Y015251D01*
X019429Y015251D01*
X019429Y015194D02*
X019429Y015308D01*
X019486Y015364D01*
X019600Y015364D01*
X019656Y015308D01*
X019600Y015137D02*
X019486Y015137D01*
X019429Y015194D01*
X019486Y014360D02*
X019429Y014304D01*
X019429Y014190D01*
X019486Y014134D01*
X019600Y014134D01*
X019656Y014247D02*
X019429Y014247D01*
X019486Y014360D02*
X019600Y014360D01*
X019656Y014304D01*
X019656Y014247D01*
X019798Y014360D02*
X019911Y014474D01*
X019911Y014134D01*
X019798Y014134D02*
X020025Y014134D01*
X020166Y014190D02*
X020223Y014134D01*
X020336Y014134D01*
X020393Y014190D01*
X020393Y014247D01*
X020336Y014304D01*
X020166Y014304D01*
X020166Y014190D01*
X020166Y014304D02*
X020280Y014417D01*
X020393Y014474D01*
X020393Y013480D02*
X020166Y013480D01*
X020166Y013310D01*
X020280Y013366D01*
X020336Y013366D01*
X020393Y013310D01*
X020393Y013196D01*
X020336Y013139D01*
X020223Y013139D01*
X020166Y013196D01*
X020025Y013139D02*
X019798Y013139D01*
X019911Y013139D02*
X019911Y013480D01*
X019798Y013366D01*
X019656Y013310D02*
X019656Y013253D01*
X019429Y013253D01*
X019429Y013310D02*
X019486Y013366D01*
X019600Y013366D01*
X019656Y013310D01*
X019600Y013139D02*
X019486Y013139D01*
X019429Y013196D01*
X019429Y013310D01*
X019911Y012466D02*
X019911Y012126D01*
X019798Y012126D02*
X020025Y012126D01*
X020166Y012182D02*
X020223Y012126D01*
X020336Y012126D01*
X020393Y012182D01*
X020393Y012239D01*
X020336Y012296D01*
X020280Y012296D01*
X020336Y012296D02*
X020393Y012353D01*
X020393Y012409D01*
X020336Y012466D01*
X020223Y012466D01*
X020166Y012409D01*
X019911Y012466D02*
X019798Y012353D01*
X019656Y012296D02*
X019656Y012239D01*
X019429Y012239D01*
X019429Y012182D02*
X019429Y012296D01*
X019486Y012353D01*
X019600Y012353D01*
X019656Y012296D01*
X019600Y012126D02*
X019486Y012126D01*
X019429Y012182D01*
X019911Y011472D02*
X019911Y011132D01*
X019798Y011132D02*
X020025Y011132D01*
X020166Y011132D02*
X020393Y011358D01*
X020393Y011415D01*
X020336Y011472D01*
X020223Y011472D01*
X020166Y011415D01*
X019911Y011472D02*
X019798Y011358D01*
X019656Y011302D02*
X019656Y011245D01*
X019429Y011245D01*
X019429Y011188D02*
X019429Y011302D01*
X019486Y011358D01*
X019600Y011358D01*
X019656Y011302D01*
X019600Y011132D02*
X019486Y011132D01*
X019429Y011188D01*
X019439Y010478D02*
X019666Y010478D01*
X019808Y010478D02*
X019808Y010137D01*
X019808Y010251D02*
X019978Y010251D01*
X020035Y010308D01*
X020035Y010421D01*
X019978Y010478D01*
X019808Y010478D01*
X019921Y010251D02*
X020035Y010137D01*
X020176Y010194D02*
X020233Y010137D01*
X020346Y010137D01*
X020403Y010194D01*
X020403Y010421D01*
X020346Y010478D01*
X020233Y010478D01*
X020176Y010421D01*
X020176Y010194D01*
X020289Y010251D02*
X020403Y010137D01*
X020336Y009474D02*
X020166Y009474D01*
X020166Y009134D01*
X020336Y009134D01*
X020393Y009190D01*
X020393Y009417D01*
X020336Y009474D01*
X020025Y009474D02*
X020025Y009134D01*
X019798Y009474D01*
X019798Y009134D01*
X019656Y009190D02*
X019656Y009304D01*
X019543Y009304D01*
X019656Y009417D02*
X019600Y009474D01*
X019486Y009474D01*
X019429Y009417D01*
X019429Y009190D01*
X019486Y009134D01*
X019600Y009134D01*
X019656Y009190D01*
X019609Y008470D02*
X019496Y008470D01*
X019439Y008413D01*
X019439Y008186D01*
X019496Y008130D01*
X019609Y008130D01*
X019666Y008186D01*
X019666Y008300D01*
X019553Y008300D01*
X019666Y008413D02*
X019609Y008470D01*
X019808Y008470D02*
X019808Y008130D01*
X020035Y008130D02*
X019808Y008470D01*
X020035Y008470D02*
X020035Y008130D01*
X020176Y008130D02*
X020346Y008130D01*
X020403Y008186D01*
X020403Y008413D01*
X020346Y008470D01*
X020176Y008470D01*
X020176Y008130D01*
X019965Y007466D02*
X020022Y007409D01*
X020022Y007296D01*
X019965Y007239D01*
X019795Y007239D01*
X019795Y007126D02*
X019795Y007466D01*
X019965Y007466D01*
X019654Y007466D02*
X019654Y007126D01*
X019540Y007239D01*
X019427Y007126D01*
X019427Y007466D01*
X019439Y010137D02*
X019439Y010478D01*
X019439Y010308D02*
X019553Y010308D01*
X020166Y011132D02*
X020393Y011132D01*
X020393Y017419D02*
X020336Y017476D01*
X012263Y007910D02*
X012036Y007910D01*
X012206Y007910D02*
X012206Y007683D01*
X012263Y007683D02*
X012036Y007683D01*
X012093Y007541D02*
X012036Y007485D01*
X012036Y007371D01*
X012093Y007314D01*
X012319Y007314D01*
X012093Y007541D01*
X012319Y007541D01*
X012376Y007485D01*
X012376Y007371D01*
X012319Y007314D01*
X012263Y007683D02*
X012376Y007796D01*
X012263Y007910D01*
X012263Y006896D02*
X012036Y006896D01*
X012206Y006896D02*
X012206Y006669D01*
X012263Y006669D02*
X012036Y006669D01*
X012036Y006527D02*
X012036Y006301D01*
X012036Y006414D02*
X012376Y006414D01*
X012263Y006527D01*
X012263Y006669D02*
X012376Y006782D01*
X012263Y006896D01*
X012263Y005931D02*
X012036Y005931D01*
X012206Y005931D02*
X012206Y005704D01*
X012263Y005704D02*
X012036Y005704D01*
X012036Y005563D02*
X012263Y005336D01*
X012319Y005336D01*
X012376Y005393D01*
X012376Y005506D01*
X012319Y005563D01*
X012263Y005704D02*
X012376Y005818D01*
X012263Y005931D01*
X012036Y005563D02*
X012036Y005336D01*
D13*
X012924Y005235D02*
X013554Y005235D01*
X013555Y005235D02*
X013571Y005240D01*
X013587Y005248D01*
X013601Y005258D01*
X013613Y005270D01*
X013623Y005285D01*
X013630Y005301D01*
X013634Y005318D01*
X013635Y005335D01*
X013633Y005353D01*
X013633Y005904D02*
X013635Y005922D01*
X013634Y005939D01*
X013630Y005956D01*
X013623Y005972D01*
X013613Y005987D01*
X013601Y005999D01*
X013587Y006009D01*
X013571Y006017D01*
X013555Y006022D01*
X013554Y006022D02*
X012924Y006022D01*
X012908Y006017D01*
X012892Y006009D01*
X012878Y005999D01*
X012866Y005987D01*
X012856Y005972D01*
X012849Y005956D01*
X012845Y005939D01*
X012844Y005922D01*
X012846Y005904D01*
X012915Y006209D02*
X013544Y006209D01*
X013545Y006209D02*
X013561Y006214D01*
X013577Y006222D01*
X013591Y006232D01*
X013603Y006244D01*
X013613Y006259D01*
X013620Y006275D01*
X013624Y006292D01*
X013625Y006309D01*
X013623Y006327D01*
X013623Y006878D02*
X013625Y006896D01*
X013624Y006913D01*
X013620Y006930D01*
X013613Y006946D01*
X013603Y006961D01*
X013591Y006973D01*
X013577Y006983D01*
X013561Y006991D01*
X013545Y006996D01*
X013544Y006996D02*
X012915Y006996D01*
X012914Y006996D02*
X012898Y006991D01*
X012882Y006983D01*
X012868Y006973D01*
X012856Y006961D01*
X012846Y006946D01*
X012839Y006930D01*
X012835Y006913D01*
X012834Y006896D01*
X012836Y006878D01*
X012905Y007183D02*
X013535Y007183D01*
X013535Y007184D02*
X013551Y007189D01*
X013567Y007197D01*
X013581Y007207D01*
X013593Y007219D01*
X013603Y007234D01*
X013610Y007250D01*
X013614Y007267D01*
X013615Y007284D01*
X013613Y007302D01*
X013613Y007852D02*
X013615Y007870D01*
X013614Y007887D01*
X013610Y007904D01*
X013603Y007920D01*
X013593Y007935D01*
X013581Y007947D01*
X013567Y007957D01*
X013551Y007965D01*
X013535Y007970D01*
X013535Y007971D02*
X012905Y007971D01*
X012904Y007970D02*
X012888Y007965D01*
X012872Y007957D01*
X012858Y007947D01*
X012846Y007935D01*
X012836Y007920D01*
X012829Y007904D01*
X012825Y007887D01*
X012824Y007870D01*
X012826Y007852D01*
X012826Y007302D02*
X012824Y007284D01*
X012825Y007267D01*
X012829Y007250D01*
X012836Y007234D01*
X012846Y007219D01*
X012858Y007207D01*
X012872Y007197D01*
X012888Y007189D01*
X012904Y007184D01*
X012836Y006327D02*
X012834Y006309D01*
X012835Y006292D01*
X012839Y006275D01*
X012846Y006259D01*
X012856Y006244D01*
X012868Y006232D01*
X012882Y006222D01*
X012898Y006214D01*
X012914Y006209D01*
X012846Y005353D02*
X012844Y005335D01*
X012845Y005318D01*
X012849Y005301D01*
X012856Y005285D01*
X012866Y005270D01*
X012878Y005258D01*
X012892Y005248D01*
X012908Y005240D01*
X012924Y005235D01*
X015188Y005928D02*
X015188Y007030D01*
X016881Y007030D01*
X016881Y005928D01*
X015188Y005928D01*
X007438Y006485D02*
X007438Y006695D01*
X007368Y006766D01*
X007298Y006695D01*
X007298Y006485D01*
X007158Y006485D02*
X007158Y006766D01*
X007228Y006766D01*
X007298Y006695D01*
X006977Y006695D02*
X006907Y006766D01*
X006767Y006766D01*
X006697Y006695D01*
X006697Y006555D01*
X006767Y006485D01*
X006907Y006485D01*
X006977Y006555D01*
X006977Y006695D01*
X006517Y006766D02*
X006307Y006766D01*
X006237Y006695D01*
X006237Y006555D01*
X006307Y006485D01*
X006517Y006485D01*
X006077Y006485D02*
X006007Y006485D01*
X006007Y006555D01*
X006077Y006555D01*
X006077Y006485D01*
X005826Y006485D02*
X005546Y006766D01*
X005309Y006766D02*
X005309Y006485D01*
X005239Y006485D02*
X005379Y006485D01*
X005546Y006485D02*
X005826Y006766D01*
X005309Y006766D02*
X005239Y006766D01*
X005309Y006906D02*
X005309Y006976D01*
X005002Y006906D02*
X005002Y006485D01*
X004932Y006485D02*
X005072Y006485D01*
X004765Y006485D02*
X004625Y006485D01*
X004695Y006485D02*
X004695Y006766D01*
X004625Y006766D01*
X004695Y006906D02*
X004695Y006976D01*
X004932Y006906D02*
X005002Y006906D01*
X004445Y006766D02*
X004445Y006485D01*
X004235Y006485D01*
X004165Y006555D01*
X004165Y006766D01*
X003985Y006766D02*
X003775Y006766D01*
X003705Y006695D01*
X003705Y006555D01*
X003775Y006485D01*
X003985Y006485D01*
X003985Y006345D02*
X003985Y006766D01*
X004031Y010183D02*
X004850Y010183D01*
X005243Y010447D02*
X005243Y010806D01*
X004850Y011089D02*
X004031Y011089D01*
X003629Y010806D02*
X003629Y010447D01*
X006428Y014052D02*
X006743Y014052D01*
X006428Y014052D02*
X006428Y014288D01*
X006428Y014918D02*
X006428Y015154D01*
X006743Y015154D01*
X006743Y016753D02*
X006428Y016753D01*
X006428Y016989D01*
X006428Y017619D02*
X006428Y017855D01*
X006743Y017855D01*
X019568Y021052D02*
X020198Y021052D01*
X020214Y021057D01*
X020230Y021065D01*
X020244Y021075D01*
X020256Y021087D01*
X020266Y021102D01*
X020273Y021118D01*
X020277Y021135D01*
X020278Y021152D01*
X020276Y021170D01*
X020276Y021721D02*
X020278Y021739D01*
X020277Y021756D01*
X020273Y021773D01*
X020266Y021789D01*
X020256Y021804D01*
X020244Y021816D01*
X020230Y021826D01*
X020214Y021834D01*
X020198Y021839D01*
X019568Y021839D01*
X019552Y021834D01*
X019536Y021826D01*
X019522Y021816D01*
X019510Y021804D01*
X019500Y021789D01*
X019493Y021773D01*
X019489Y021756D01*
X019488Y021739D01*
X019490Y021721D01*
X019568Y022056D02*
X020198Y022056D01*
X020214Y022061D01*
X020230Y022069D01*
X020244Y022079D01*
X020256Y022091D01*
X020266Y022106D01*
X020273Y022122D01*
X020277Y022139D01*
X020278Y022156D01*
X020276Y022174D01*
X020276Y022724D02*
X020278Y022742D01*
X020277Y022759D01*
X020273Y022776D01*
X020266Y022792D01*
X020256Y022807D01*
X020244Y022819D01*
X020230Y022829D01*
X020214Y022837D01*
X020198Y022842D01*
X020198Y022843D02*
X019568Y022843D01*
X019568Y022842D02*
X019552Y022837D01*
X019536Y022829D01*
X019522Y022819D01*
X019510Y022807D01*
X019500Y022792D01*
X019493Y022776D01*
X019489Y022759D01*
X019488Y022742D01*
X019490Y022724D01*
X019490Y022174D02*
X019488Y022156D01*
X019489Y022139D01*
X019493Y022122D01*
X019500Y022106D01*
X019510Y022091D01*
X019522Y022079D01*
X019536Y022069D01*
X019552Y022061D01*
X019568Y022056D01*
X019490Y021170D02*
X019488Y021152D01*
X019489Y021135D01*
X019493Y021118D01*
X019500Y021102D01*
X019510Y021087D01*
X019522Y021075D01*
X019536Y021065D01*
X019552Y021057D01*
X019568Y021052D01*
D14*
X002944Y007237D02*
X002944Y001331D01*
X002946Y001265D01*
X002951Y001199D01*
X002961Y001133D01*
X002974Y001068D01*
X002990Y001004D01*
X003010Y000941D01*
X003034Y000879D01*
X003061Y000819D01*
X003091Y000760D01*
X003125Y000703D01*
X003162Y000648D01*
X003202Y000595D01*
X003244Y000544D01*
X003290Y000496D01*
X003338Y000450D01*
X003389Y000408D01*
X003442Y000368D01*
X003497Y000331D01*
X003554Y000297D01*
X003613Y000267D01*
X003673Y000240D01*
X003735Y000216D01*
X003798Y000196D01*
X003862Y000180D01*
X003927Y000167D01*
X003993Y000157D01*
X004059Y000152D01*
X004125Y000150D01*
X023810Y000150D01*
X023876Y000152D01*
X023942Y000157D01*
X024008Y000167D01*
X024073Y000180D01*
X024137Y000196D01*
X024200Y000216D01*
X024262Y000240D01*
X024322Y000267D01*
X024381Y000297D01*
X024438Y000331D01*
X024493Y000368D01*
X024546Y000408D01*
X024597Y000450D01*
X024645Y000496D01*
X024691Y000544D01*
X024733Y000595D01*
X024773Y000648D01*
X024810Y000703D01*
X024844Y000760D01*
X024874Y000819D01*
X024901Y000879D01*
X024925Y000941D01*
X024945Y001004D01*
X024961Y001068D01*
X024974Y001133D01*
X024984Y001199D01*
X024989Y001265D01*
X024991Y001331D01*
X024991Y024559D01*
X024989Y024625D01*
X024984Y024691D01*
X024974Y024757D01*
X024961Y024822D01*
X024945Y024886D01*
X024925Y024949D01*
X024901Y025011D01*
X024874Y025071D01*
X024844Y025130D01*
X024810Y025187D01*
X024773Y025242D01*
X024733Y025295D01*
X024691Y025346D01*
X024645Y025394D01*
X024597Y025440D01*
X024546Y025482D01*
X024493Y025522D01*
X024438Y025559D01*
X024381Y025593D01*
X024322Y025623D01*
X024262Y025650D01*
X024200Y025674D01*
X024137Y025694D01*
X024073Y025710D01*
X024008Y025723D01*
X023942Y025733D01*
X023876Y025738D01*
X023810Y025740D01*
X023810Y025741D02*
X017708Y025741D01*
X017669Y025739D01*
X017631Y025733D01*
X017594Y025724D01*
X017557Y025711D01*
X017522Y025694D01*
X017489Y025675D01*
X017458Y025652D01*
X017429Y025626D01*
X017403Y025597D01*
X017380Y025566D01*
X017361Y025533D01*
X017344Y025498D01*
X017331Y025461D01*
X017322Y025424D01*
X017316Y025386D01*
X017314Y025347D01*
X017314Y024166D01*
X017312Y024127D01*
X017306Y024089D01*
X017297Y024052D01*
X017284Y024015D01*
X017267Y023980D01*
X017248Y023947D01*
X017225Y023916D01*
X017199Y023887D01*
X017170Y023861D01*
X017139Y023838D01*
X017106Y023819D01*
X017071Y023802D01*
X017034Y023789D01*
X016997Y023780D01*
X016959Y023774D01*
X016920Y023772D01*
X011015Y023772D01*
X010976Y023774D01*
X010938Y023780D01*
X010901Y023789D01*
X010864Y023802D01*
X010829Y023819D01*
X010796Y023838D01*
X010765Y023861D01*
X010736Y023887D01*
X010710Y023916D01*
X010687Y023947D01*
X010668Y023980D01*
X010651Y024015D01*
X010638Y024052D01*
X010629Y024089D01*
X010623Y024127D01*
X010621Y024166D01*
X010621Y025347D01*
X010622Y025347D02*
X010620Y025386D01*
X010614Y025424D01*
X010605Y025461D01*
X010592Y025498D01*
X010575Y025533D01*
X010556Y025566D01*
X010533Y025597D01*
X010507Y025626D01*
X010478Y025652D01*
X010447Y025675D01*
X010414Y025694D01*
X010379Y025711D01*
X010342Y025724D01*
X010305Y025733D01*
X010267Y025739D01*
X010228Y025741D01*
X004125Y025741D01*
X004125Y025740D02*
X004059Y025738D01*
X003993Y025733D01*
X003927Y025723D01*
X003862Y025710D01*
X003798Y025694D01*
X003735Y025674D01*
X003673Y025650D01*
X003613Y025623D01*
X003554Y025593D01*
X003497Y025559D01*
X003442Y025522D01*
X003389Y025482D01*
X003338Y025440D01*
X003290Y025394D01*
X003244Y025346D01*
X003202Y025295D01*
X003162Y025242D01*
X003125Y025187D01*
X003091Y025130D01*
X003061Y025071D01*
X003034Y025011D01*
X003010Y024949D01*
X002990Y024886D01*
X002974Y024822D01*
X002961Y024757D01*
X002951Y024691D01*
X002946Y024625D01*
X002944Y024559D01*
X002944Y008811D01*
X002946Y008772D01*
X002952Y008734D01*
X002961Y008697D01*
X002974Y008660D01*
X002991Y008625D01*
X003010Y008592D01*
X003033Y008561D01*
X003059Y008532D01*
X003088Y008506D01*
X003119Y008483D01*
X003152Y008464D01*
X003187Y008447D01*
X003224Y008434D01*
X003261Y008425D01*
X003299Y008419D01*
X003338Y008417D01*
X003338Y008418D02*
X010424Y008418D01*
X010463Y008416D01*
X010501Y008410D01*
X010538Y008401D01*
X010575Y008388D01*
X010610Y008371D01*
X010643Y008352D01*
X010674Y008329D01*
X010703Y008303D01*
X010729Y008274D01*
X010752Y008243D01*
X010771Y008210D01*
X010788Y008175D01*
X010801Y008138D01*
X010810Y008101D01*
X010816Y008063D01*
X010818Y008024D01*
X010816Y007985D01*
X010810Y007947D01*
X010801Y007910D01*
X010788Y007873D01*
X010771Y007838D01*
X010752Y007805D01*
X010729Y007774D01*
X010703Y007745D01*
X010674Y007719D01*
X010643Y007696D01*
X010610Y007677D01*
X010575Y007660D01*
X010538Y007647D01*
X010501Y007638D01*
X010463Y007632D01*
X010424Y007630D01*
X003338Y007630D01*
X003338Y007631D02*
X003299Y007629D01*
X003261Y007623D01*
X003224Y007614D01*
X003187Y007601D01*
X003152Y007584D01*
X003119Y007565D01*
X003088Y007542D01*
X003059Y007516D01*
X003033Y007487D01*
X003010Y007456D01*
X002991Y007423D01*
X002974Y007388D01*
X002961Y007351D01*
X002952Y007314D01*
X002946Y007276D01*
X002944Y007237D01*
X003771Y001528D02*
X003773Y001575D01*
X003779Y001621D01*
X003789Y001667D01*
X003802Y001712D01*
X003820Y001755D01*
X003841Y001797D01*
X003865Y001837D01*
X003893Y001874D01*
X003924Y001909D01*
X003958Y001942D01*
X003994Y001971D01*
X004033Y001997D01*
X004074Y002020D01*
X004117Y002039D01*
X004161Y002055D01*
X004206Y002067D01*
X004252Y002075D01*
X004299Y002079D01*
X004345Y002079D01*
X004392Y002075D01*
X004438Y002067D01*
X004483Y002055D01*
X004527Y002039D01*
X004570Y002020D01*
X004611Y001997D01*
X004650Y001971D01*
X004686Y001942D01*
X004720Y001909D01*
X004751Y001874D01*
X004779Y001837D01*
X004803Y001797D01*
X004824Y001755D01*
X004842Y001712D01*
X004855Y001667D01*
X004865Y001621D01*
X004871Y001575D01*
X004873Y001528D01*
X004871Y001481D01*
X004865Y001435D01*
X004855Y001389D01*
X004842Y001344D01*
X004824Y001301D01*
X004803Y001259D01*
X004779Y001219D01*
X004751Y001182D01*
X004720Y001147D01*
X004686Y001114D01*
X004650Y001085D01*
X004611Y001059D01*
X004570Y001036D01*
X004527Y001017D01*
X004483Y001001D01*
X004438Y000989D01*
X004392Y000981D01*
X004345Y000977D01*
X004299Y000977D01*
X004252Y000981D01*
X004206Y000989D01*
X004161Y001001D01*
X004117Y001017D01*
X004074Y001036D01*
X004033Y001059D01*
X003994Y001085D01*
X003958Y001114D01*
X003924Y001147D01*
X003893Y001182D01*
X003865Y001219D01*
X003841Y001259D01*
X003820Y001301D01*
X003802Y001344D01*
X003789Y001389D01*
X003779Y001435D01*
X003773Y001481D01*
X003771Y001528D01*
X023062Y001528D02*
X023064Y001575D01*
X023070Y001621D01*
X023080Y001667D01*
X023093Y001712D01*
X023111Y001755D01*
X023132Y001797D01*
X023156Y001837D01*
X023184Y001874D01*
X023215Y001909D01*
X023249Y001942D01*
X023285Y001971D01*
X023324Y001997D01*
X023365Y002020D01*
X023408Y002039D01*
X023452Y002055D01*
X023497Y002067D01*
X023543Y002075D01*
X023590Y002079D01*
X023636Y002079D01*
X023683Y002075D01*
X023729Y002067D01*
X023774Y002055D01*
X023818Y002039D01*
X023861Y002020D01*
X023902Y001997D01*
X023941Y001971D01*
X023977Y001942D01*
X024011Y001909D01*
X024042Y001874D01*
X024070Y001837D01*
X024094Y001797D01*
X024115Y001755D01*
X024133Y001712D01*
X024146Y001667D01*
X024156Y001621D01*
X024162Y001575D01*
X024164Y001528D01*
X024162Y001481D01*
X024156Y001435D01*
X024146Y001389D01*
X024133Y001344D01*
X024115Y001301D01*
X024094Y001259D01*
X024070Y001219D01*
X024042Y001182D01*
X024011Y001147D01*
X023977Y001114D01*
X023941Y001085D01*
X023902Y001059D01*
X023861Y001036D01*
X023818Y001017D01*
X023774Y001001D01*
X023729Y000989D01*
X023683Y000981D01*
X023636Y000977D01*
X023590Y000977D01*
X023543Y000981D01*
X023497Y000989D01*
X023452Y001001D01*
X023408Y001017D01*
X023365Y001036D01*
X023324Y001059D01*
X023285Y001085D01*
X023249Y001114D01*
X023215Y001147D01*
X023184Y001182D01*
X023156Y001219D01*
X023132Y001259D01*
X023111Y001301D01*
X023093Y001344D01*
X023080Y001389D01*
X023070Y001435D01*
X023064Y001481D01*
X023062Y001528D01*
X023112Y024402D02*
X023114Y024449D01*
X023120Y024495D01*
X023130Y024541D01*
X023143Y024586D01*
X023161Y024629D01*
X023182Y024671D01*
X023206Y024711D01*
X023234Y024748D01*
X023265Y024783D01*
X023299Y024816D01*
X023335Y024845D01*
X023374Y024871D01*
X023415Y024894D01*
X023458Y024913D01*
X023502Y024929D01*
X023547Y024941D01*
X023593Y024949D01*
X023640Y024953D01*
X023686Y024953D01*
X023733Y024949D01*
X023779Y024941D01*
X023824Y024929D01*
X023868Y024913D01*
X023911Y024894D01*
X023952Y024871D01*
X023991Y024845D01*
X024027Y024816D01*
X024061Y024783D01*
X024092Y024748D01*
X024120Y024711D01*
X024144Y024671D01*
X024165Y024629D01*
X024183Y024586D01*
X024196Y024541D01*
X024206Y024495D01*
X024212Y024449D01*
X024214Y024402D01*
X024212Y024355D01*
X024206Y024309D01*
X024196Y024263D01*
X024183Y024218D01*
X024165Y024175D01*
X024144Y024133D01*
X024120Y024093D01*
X024092Y024056D01*
X024061Y024021D01*
X024027Y023988D01*
X023991Y023959D01*
X023952Y023933D01*
X023911Y023910D01*
X023868Y023891D01*
X023824Y023875D01*
X023779Y023863D01*
X023733Y023855D01*
X023686Y023851D01*
X023640Y023851D01*
X023593Y023855D01*
X023547Y023863D01*
X023502Y023875D01*
X023458Y023891D01*
X023415Y023910D01*
X023374Y023933D01*
X023335Y023959D01*
X023299Y023988D01*
X023265Y024021D01*
X023234Y024056D01*
X023206Y024093D01*
X023182Y024133D01*
X023161Y024175D01*
X023143Y024218D01*
X023130Y024263D01*
X023120Y024309D01*
X023114Y024355D01*
X023112Y024402D01*
X003771Y024363D02*
X003773Y024410D01*
X003779Y024456D01*
X003789Y024502D01*
X003802Y024547D01*
X003820Y024590D01*
X003841Y024632D01*
X003865Y024672D01*
X003893Y024709D01*
X003924Y024744D01*
X003958Y024777D01*
X003994Y024806D01*
X004033Y024832D01*
X004074Y024855D01*
X004117Y024874D01*
X004161Y024890D01*
X004206Y024902D01*
X004252Y024910D01*
X004299Y024914D01*
X004345Y024914D01*
X004392Y024910D01*
X004438Y024902D01*
X004483Y024890D01*
X004527Y024874D01*
X004570Y024855D01*
X004611Y024832D01*
X004650Y024806D01*
X004686Y024777D01*
X004720Y024744D01*
X004751Y024709D01*
X004779Y024672D01*
X004803Y024632D01*
X004824Y024590D01*
X004842Y024547D01*
X004855Y024502D01*
X004865Y024456D01*
X004871Y024410D01*
X004873Y024363D01*
X004871Y024316D01*
X004865Y024270D01*
X004855Y024224D01*
X004842Y024179D01*
X004824Y024136D01*
X004803Y024094D01*
X004779Y024054D01*
X004751Y024017D01*
X004720Y023982D01*
X004686Y023949D01*
X004650Y023920D01*
X004611Y023894D01*
X004570Y023871D01*
X004527Y023852D01*
X004483Y023836D01*
X004438Y023824D01*
X004392Y023816D01*
X004345Y023812D01*
X004299Y023812D01*
X004252Y023816D01*
X004206Y023824D01*
X004161Y023836D01*
X004117Y023852D01*
X004074Y023871D01*
X004033Y023894D01*
X003994Y023920D01*
X003958Y023949D01*
X003924Y023982D01*
X003893Y024017D01*
X003865Y024054D01*
X003841Y024094D01*
X003820Y024136D01*
X003802Y024179D01*
X003789Y024224D01*
X003779Y024270D01*
X003773Y024316D01*
X003771Y024363D01*
D15*
X004994Y016250D02*
X004994Y016004D01*
X005117Y016127D02*
X004870Y016127D01*
X004994Y015207D02*
X004994Y014960D01*
X005117Y015084D02*
X004870Y015084D01*
X005004Y012087D02*
X005004Y011840D01*
X005127Y011964D02*
X004880Y011964D01*
D16*
X004145Y012089D03*
X004145Y012561D03*
X004135Y015209D03*
X004135Y015681D03*
X004135Y016252D03*
X004135Y016725D03*
D17*
X004135Y016489D03*
X004135Y015445D03*
X004145Y012325D03*
D18*
X017413Y012119D02*
X017728Y012119D01*
X017728Y011528D02*
X017413Y011528D01*
X017413Y013506D02*
X017728Y013506D01*
X017728Y014097D02*
X017413Y014097D01*
X017413Y015514D02*
X017728Y015514D01*
X017728Y016105D02*
X017413Y016105D01*
X017422Y017502D02*
X017737Y017502D01*
X017737Y018093D02*
X017422Y018093D01*
X017422Y019491D02*
X017737Y019491D01*
X017737Y020081D02*
X017422Y020081D01*
D19*
X004125Y010632D02*
X004127Y010667D01*
X004133Y010702D01*
X004143Y010736D01*
X004156Y010769D01*
X004173Y010800D01*
X004194Y010828D01*
X004217Y010855D01*
X004244Y010878D01*
X004272Y010899D01*
X004303Y010916D01*
X004336Y010929D01*
X004370Y010939D01*
X004405Y010945D01*
X004440Y010947D01*
X004475Y010945D01*
X004510Y010939D01*
X004544Y010929D01*
X004577Y010916D01*
X004608Y010899D01*
X004636Y010878D01*
X004663Y010855D01*
X004686Y010828D01*
X004707Y010800D01*
X004724Y010769D01*
X004737Y010736D01*
X004747Y010702D01*
X004753Y010667D01*
X004755Y010632D01*
X004753Y010597D01*
X004747Y010562D01*
X004737Y010528D01*
X004724Y010495D01*
X004707Y010464D01*
X004686Y010436D01*
X004663Y010409D01*
X004636Y010386D01*
X004608Y010365D01*
X004577Y010348D01*
X004544Y010335D01*
X004510Y010325D01*
X004475Y010319D01*
X004440Y010317D01*
X004405Y010319D01*
X004370Y010325D01*
X004336Y010335D01*
X004303Y010348D01*
X004272Y010365D01*
X004244Y010386D01*
X004217Y010409D01*
X004194Y010436D01*
X004173Y010464D01*
X004156Y010495D01*
X004143Y010528D01*
X004133Y010562D01*
X004127Y010597D01*
X004125Y010632D01*
D20*
X021988Y022360D02*
X022438Y022360D01*
X022438Y022210D02*
X022438Y022510D01*
X022138Y022210D02*
X021988Y022360D01*
D21*
X015395Y006735D03*
M02*
