G75*
%MOIN*%
%OFA0B0*%
%FSLAX24Y24*%
%IPPOS*%
%LPD*%
%AMOC8*
5,1,8,0,0,1.08239X$1,22.5*
%
%ADD10C,0.1182*%
%ADD11C,0.1220*%
%ADD12R,0.1680X0.0680*%
%ADD13C,0.0780*%
%ADD14R,0.0680X0.0680*%
%ADD15OC8,0.0680*%
%ADD16C,0.0671*%
D10*
X004322Y001528D03*
X023613Y001528D03*
X023663Y024402D03*
X004322Y024363D03*
D11*
X003712Y001528D02*
X003714Y001577D01*
X003720Y001626D01*
X003730Y001674D01*
X003743Y001721D01*
X003761Y001767D01*
X003782Y001811D01*
X003806Y001854D01*
X003834Y001894D01*
X003865Y001933D01*
X003899Y001968D01*
X003936Y002001D01*
X003975Y002030D01*
X004017Y002056D01*
X004060Y002079D01*
X004106Y002098D01*
X004152Y002114D01*
X004200Y002126D01*
X004248Y002134D01*
X004297Y002138D01*
X004347Y002138D01*
X004396Y002134D01*
X004444Y002126D01*
X004492Y002114D01*
X004538Y002098D01*
X004584Y002079D01*
X004627Y002056D01*
X004669Y002030D01*
X004708Y002001D01*
X004745Y001968D01*
X004779Y001933D01*
X004810Y001894D01*
X004838Y001854D01*
X004862Y001811D01*
X004883Y001767D01*
X004901Y001721D01*
X004914Y001674D01*
X004924Y001626D01*
X004930Y001577D01*
X004932Y001528D01*
X004930Y001479D01*
X004924Y001430D01*
X004914Y001382D01*
X004901Y001335D01*
X004883Y001289D01*
X004862Y001245D01*
X004838Y001202D01*
X004810Y001162D01*
X004779Y001123D01*
X004745Y001088D01*
X004708Y001055D01*
X004669Y001026D01*
X004627Y001000D01*
X004584Y000977D01*
X004538Y000958D01*
X004492Y000942D01*
X004444Y000930D01*
X004396Y000922D01*
X004347Y000918D01*
X004297Y000918D01*
X004248Y000922D01*
X004200Y000930D01*
X004152Y000942D01*
X004106Y000958D01*
X004060Y000977D01*
X004017Y001000D01*
X003975Y001026D01*
X003936Y001055D01*
X003899Y001088D01*
X003865Y001123D01*
X003834Y001162D01*
X003806Y001202D01*
X003782Y001245D01*
X003761Y001289D01*
X003743Y001335D01*
X003730Y001382D01*
X003720Y001430D01*
X003714Y001479D01*
X003712Y001528D01*
X023003Y001528D02*
X023005Y001577D01*
X023011Y001626D01*
X023021Y001674D01*
X023034Y001721D01*
X023052Y001767D01*
X023073Y001811D01*
X023097Y001854D01*
X023125Y001894D01*
X023156Y001933D01*
X023190Y001968D01*
X023227Y002001D01*
X023266Y002030D01*
X023308Y002056D01*
X023351Y002079D01*
X023397Y002098D01*
X023443Y002114D01*
X023491Y002126D01*
X023539Y002134D01*
X023588Y002138D01*
X023638Y002138D01*
X023687Y002134D01*
X023735Y002126D01*
X023783Y002114D01*
X023829Y002098D01*
X023875Y002079D01*
X023918Y002056D01*
X023960Y002030D01*
X023999Y002001D01*
X024036Y001968D01*
X024070Y001933D01*
X024101Y001894D01*
X024129Y001854D01*
X024153Y001811D01*
X024174Y001767D01*
X024192Y001721D01*
X024205Y001674D01*
X024215Y001626D01*
X024221Y001577D01*
X024223Y001528D01*
X024221Y001479D01*
X024215Y001430D01*
X024205Y001382D01*
X024192Y001335D01*
X024174Y001289D01*
X024153Y001245D01*
X024129Y001202D01*
X024101Y001162D01*
X024070Y001123D01*
X024036Y001088D01*
X023999Y001055D01*
X023960Y001026D01*
X023918Y001000D01*
X023875Y000977D01*
X023829Y000958D01*
X023783Y000942D01*
X023735Y000930D01*
X023687Y000922D01*
X023638Y000918D01*
X023588Y000918D01*
X023539Y000922D01*
X023491Y000930D01*
X023443Y000942D01*
X023397Y000958D01*
X023351Y000977D01*
X023308Y001000D01*
X023266Y001026D01*
X023227Y001055D01*
X023190Y001088D01*
X023156Y001123D01*
X023125Y001162D01*
X023097Y001202D01*
X023073Y001245D01*
X023052Y001289D01*
X023034Y001335D01*
X023021Y001382D01*
X023011Y001430D01*
X023005Y001479D01*
X023003Y001528D01*
X023003Y024363D02*
X023005Y024412D01*
X023011Y024461D01*
X023021Y024509D01*
X023034Y024556D01*
X023052Y024602D01*
X023073Y024646D01*
X023097Y024689D01*
X023125Y024729D01*
X023156Y024768D01*
X023190Y024803D01*
X023227Y024836D01*
X023266Y024865D01*
X023308Y024891D01*
X023351Y024914D01*
X023397Y024933D01*
X023443Y024949D01*
X023491Y024961D01*
X023539Y024969D01*
X023588Y024973D01*
X023638Y024973D01*
X023687Y024969D01*
X023735Y024961D01*
X023783Y024949D01*
X023829Y024933D01*
X023875Y024914D01*
X023918Y024891D01*
X023960Y024865D01*
X023999Y024836D01*
X024036Y024803D01*
X024070Y024768D01*
X024101Y024729D01*
X024129Y024689D01*
X024153Y024646D01*
X024174Y024602D01*
X024192Y024556D01*
X024205Y024509D01*
X024215Y024461D01*
X024221Y024412D01*
X024223Y024363D01*
X024221Y024314D01*
X024215Y024265D01*
X024205Y024217D01*
X024192Y024170D01*
X024174Y024124D01*
X024153Y024080D01*
X024129Y024037D01*
X024101Y023997D01*
X024070Y023958D01*
X024036Y023923D01*
X023999Y023890D01*
X023960Y023861D01*
X023918Y023835D01*
X023875Y023812D01*
X023829Y023793D01*
X023783Y023777D01*
X023735Y023765D01*
X023687Y023757D01*
X023638Y023753D01*
X023588Y023753D01*
X023539Y023757D01*
X023491Y023765D01*
X023443Y023777D01*
X023397Y023793D01*
X023351Y023812D01*
X023308Y023835D01*
X023266Y023861D01*
X023227Y023890D01*
X023190Y023923D01*
X023156Y023958D01*
X023125Y023997D01*
X023097Y024037D01*
X023073Y024080D01*
X023052Y024124D01*
X023034Y024170D01*
X023021Y024217D01*
X023011Y024265D01*
X023005Y024314D01*
X023003Y024363D01*
X003712Y024363D02*
X003714Y024412D01*
X003720Y024461D01*
X003730Y024509D01*
X003743Y024556D01*
X003761Y024602D01*
X003782Y024646D01*
X003806Y024689D01*
X003834Y024729D01*
X003865Y024768D01*
X003899Y024803D01*
X003936Y024836D01*
X003975Y024865D01*
X004017Y024891D01*
X004060Y024914D01*
X004106Y024933D01*
X004152Y024949D01*
X004200Y024961D01*
X004248Y024969D01*
X004297Y024973D01*
X004347Y024973D01*
X004396Y024969D01*
X004444Y024961D01*
X004492Y024949D01*
X004538Y024933D01*
X004584Y024914D01*
X004627Y024891D01*
X004669Y024865D01*
X004708Y024836D01*
X004745Y024803D01*
X004779Y024768D01*
X004810Y024729D01*
X004838Y024689D01*
X004862Y024646D01*
X004883Y024602D01*
X004901Y024556D01*
X004914Y024509D01*
X004924Y024461D01*
X004930Y024412D01*
X004932Y024363D01*
X004930Y024314D01*
X004924Y024265D01*
X004914Y024217D01*
X004901Y024170D01*
X004883Y024124D01*
X004862Y024080D01*
X004838Y024037D01*
X004810Y023997D01*
X004779Y023958D01*
X004745Y023923D01*
X004708Y023890D01*
X004669Y023861D01*
X004627Y023835D01*
X004584Y023812D01*
X004538Y023793D01*
X004492Y023777D01*
X004444Y023765D01*
X004396Y023757D01*
X004347Y023753D01*
X004297Y023753D01*
X004248Y023757D01*
X004200Y023765D01*
X004152Y023777D01*
X004106Y023793D01*
X004060Y023812D01*
X004017Y023835D01*
X003975Y023861D01*
X003936Y023890D01*
X003899Y023923D01*
X003865Y023958D01*
X003834Y023997D01*
X003806Y024037D01*
X003782Y024080D01*
X003761Y024124D01*
X003743Y024170D01*
X003730Y024217D01*
X003720Y024265D01*
X003714Y024314D01*
X003712Y024363D01*
D12*
X003800Y021500D03*
X003800Y019500D03*
D13*
X018948Y019292D03*
X018948Y020292D03*
X018934Y021449D03*
X018944Y022443D03*
X018948Y018292D03*
X018948Y017292D03*
X018948Y016306D03*
X018948Y015306D03*
X018948Y014306D03*
X018948Y013306D03*
X018938Y012309D03*
X018938Y011309D03*
X018938Y010309D03*
X018938Y009309D03*
X018934Y008309D03*
X018934Y007306D03*
D14*
X023113Y022445D03*
D15*
X023113Y021445D03*
X023113Y020445D03*
X023113Y019445D03*
X023113Y018445D03*
X023113Y017445D03*
X023113Y016445D03*
X023113Y015445D03*
X023113Y014445D03*
X023113Y013445D03*
X023113Y012445D03*
X023113Y011445D03*
X023113Y010445D03*
X023113Y009445D03*
X023113Y008445D03*
X023113Y007445D03*
X023113Y006445D03*
X023113Y005445D03*
X023113Y004445D03*
X023113Y003445D03*
X024113Y003445D03*
X024113Y004445D03*
X024113Y005445D03*
X024113Y006445D03*
X024113Y007445D03*
X024113Y008445D03*
X024113Y009445D03*
X024113Y010445D03*
X024113Y011445D03*
X024113Y012445D03*
X024113Y013445D03*
X024113Y014445D03*
X024113Y015445D03*
X024113Y016445D03*
X024113Y017445D03*
X024113Y018445D03*
X024113Y019445D03*
X024113Y020445D03*
X024113Y021445D03*
X024113Y022445D03*
D16*
X003850Y020504D03*
M02*
